<svg xmlns="http://www.w3.org/2000/svg" viewBox="0 0 55.17 54.08"><defs><style>.cls-1{fill:#e2e738;}.cls-2{fill:#4f3244;}</style></defs><g id="Layer_2" data-name="Layer 2"><g id="Layer_1-2" data-name="Layer 1"><path class="cls-1" d="M27.58,0C12.35,0,0,12.11,0,27s12.35,27,27.58,27S55.17,42,55.17,27,42.82,0,27.58,0"/><path class="cls-2" d="M44.87,27a3.34,3.34,0,0,0-2.76.26,1.4,1.4,0,0,1-1,.17h0a1.34,1.34,0,0,1-1-1.59l.6-2.87,1.14-5.41-8.6-1.81a1.35,1.35,0,0,0-1.59,1l0,.13a1.4,1.4,0,0,0,.17,1,3.31,3.31,0,1,1-6.11,1,3.27,3.27,0,0,1,1.29-2,1.41,1.41,0,0,0,.54-.83l0-.13a1.34,1.34,0,0,0-1-1.59L18.6,12.63l-1.19,8.62a1.34,1.34,0,0,1-1.61,1.13l-.9-.19a1.38,1.38,0,0,1-.83-.55,3.28,3.28,0,0,0-2.41-1.34,3.31,3.31,0,0,0-.94,6.54,3.25,3.25,0,0,0,2.34-.37,1.37,1.37,0,0,1,1-.17l.3.07a1.33,1.33,0,0,1,1,1.59l-1.81,8.58,7.91,1.67a1.34,1.34,0,0,0,1.59-1l0-.2a1.4,1.4,0,0,0-.17-1,3.28,3.28,0,0,1-.25-2.75A3.31,3.31,0,1,1,27.75,37a1.36,1.36,0,0,0-.55.82l-.18.85a1.35,1.35,0,0,0,1.14,1.61l8.64,1.15,1.18-9a1.35,1.35,0,0,1,1.61-1.14l.68.15a1.39,1.39,0,0,1,.82.54A3.31,3.31,0,1,0,44.87,27Z"/></g></g></svg>