<svg xmlns="http://www.w3.org/2000/svg" viewBox="0 0 55.17 54.08"><defs><style>.cls-1{fill:#ea5060;}.cls-2{fill:#e2e738;}</style></defs><g id="Layer_2" data-name="Layer 2"><g id="Layer_1-2" data-name="Layer 1"><path class="cls-1" d="M27.58,0C12.35,0,0,12.11,0,27s12.35,27,27.58,27S55.17,42,55.17,27,42.82,0,27.58,0"/><path class="cls-2" d="M28.59,6.74l4.06,12.5a1.06,1.06,0,0,0,1,.73H46.79a1.05,1.05,0,0,1,.62,1.91L36.78,29.6a1.06,1.06,0,0,0-.38,1.18l4.06,12.5a1.06,1.06,0,0,1-1.63,1.18L28.2,36.74a1.05,1.05,0,0,0-1.24,0L16.33,44.46a1.05,1.05,0,0,1-1.62-1.18l4.06-12.5a1.06,1.06,0,0,0-.39-1.18L7.75,21.88A1.06,1.06,0,0,1,8.37,20H21.51a1.07,1.07,0,0,0,1-.73l4.06-12.5A1.06,1.06,0,0,1,28.59,6.74Z"/></g></g></svg>