<svg xmlns="http://www.w3.org/2000/svg" width="48.699" height="44.339" viewBox="0 0 48.699 44.339">
  <path id="Path_219" data-name="Path 219" d="M1454.053,157.686c-1.839,0-3.364,1.726-4.045,2.644a4.853,4.853,0,0,1,.607-1.392c.954-1.522,2.331-2.069,1.6-2.68-.8-.67-1.8,1.91-2.293,3.382V136.133a2.058,2.058,0,0,0-.813-1.638l-.1-.555-1.265-.889.306-.435-7.994-7.285,2.78-2.816-3.219-2.262-1.7,3.551-7.575-3.629-3.638-2.556a1.783,1.783,0,0,0-1.554-.244l-3.583,1.112a1.713,1.713,0,0,0-1.162,1.255l-2.532,11.114a1.909,1.909,0,0,0,.6,1.859l1.8,1.58a.451.451,0,0,0,.666-.08l1.211-1.724-.475-.333h-.016a1.707,1.707,0,0,1-1.556-1.34l.42-.83a6.364,6.364,0,0,0,.683-2.953h0a3.47,3.47,0,0,1,.63-2.04,4.734,4.734,0,0,0,.86-2.7,1.16,1.16,0,0,1,.689-1.056,1.591,1.591,0,0,1,1.883.454l.667.826,2.285,1.605-5.41,10.137.256.711-1.556,2.214-.842-.063L1409.04,150.5l15.842,11.132,8.646-15.486-.3-.743,1.556-2.214.855.069,4.193-4.64,7.973-3.769a.8.8,0,0,1,.8.069l.328.231v24.92c-.571-.841-2.164-2.917-4.2-3.287-2.564-.466-3.642,2.476-1.806,3.642s2.543-2.507,6.006,1.208h1c1.757-4.182,5.5-.538,6.43-1.3S1456.559,157.686,1454.053,157.686Zm-1.107-1.661a.466.466,0,1,0-.466-.466A.466.466,0,0,0,1452.946,156.026Zm1.049-1.092a.218.218,0,1,0-.219-.219A.219.219,0,0,0,1453.995,154.933Zm3.409,5.244a.335.335,0,1,0,.335.335A.335.335,0,0,0,1457.4,160.177Zm-16.548-.889a.612.612,0,1,0,.612.612A.612.612,0,0,0,1440.855,159.289Zm-.32-.816a.32.32,0,1,0-.321-.32A.32.32,0,0,0,1440.535,158.473Z" transform="translate(-1409.04 -117.294)" fill="#4F3244"/>
</svg>
