<svg xmlns="http://www.w3.org/2000/svg" viewBox="0 0 92.83 42.69"><defs><style>.cls-1{fill:none;stroke:#DEDE42;stroke-width:1.8px;}.cls-2{fill:#ffffff;}</style></defs><g id="Layer_2" data-name="Layer 2"><g id="Layer_1-2" data-name="Layer 1"><path class="cls-1" d="M2.15,40.45,7.81,29.31V10.37S6.68.9,18,.9H85.7s6.23.56,6.23,8.36V26s0,7.79-9.06,7.79H14.05Z"/><path class="cls-2" d="M18.75,8.88h5.64c4.81,0,8,2.46,8,7.48,0,4.82-3.18,7.65-8,7.65H18.75ZM24,21.11c3.11,0,4.73-1.77,4.73-4.73s-1.62-4.6-4.73-4.6H22.27v9.33Z"/><path class="cls-2" d="M45.73,24H34.56V8.88h11v2.81H38v3.18h7v2.74H38V21.2h7.74Z"/><path class="cls-2" d="M50.37,16.16h2.56c2.51,0,4.13,1.23,4.13,3.88s-1.63,4-4.14,4H50.37Zm2.41,6.74A2.6,2.6,0,0,0,55.71,20c0-1.77-.93-2.77-2.93-2.77H51.67V22.9Z"/><path class="cls-2" d="M58.33,15.93h1.23v1.28H58.33Zm0,2.27h1.21V24H58.34Z"/><path class="cls-2" d="M64.8,23.24a2.09,2.09,0,0,1-1.86.89,1.88,1.88,0,0,1-2.11-1.77c0-1.27,1.06-1.69,2.58-1.93l1.31-.22v-.05c0-.82-.45-1.12-1.2-1.12a1.2,1.2,0,0,0-1.32,1H61a2.37,2.37,0,0,1,2.55-2c1.34,0,2.35.54,2.34,2.13l0,2.65c0,.18,0,.46.06,1.17H64.82Zm-1.64-.1a1.45,1.45,0,0,0,1.56-1.56v-.41c-1.9.23-2.69.44-2.69,1.13C62,22.84,62.5,23.14,63.16,23.14Z"/><path class="cls-2" d="M67.46,15.93h1.21V24H67.46Z"/><path class="cls-2" d="M72.87,24.13a2.9,2.9,0,0,1-3-3.07,2.88,2.88,0,0,1,2.88-3,2.82,2.82,0,0,1,2.84,3.13v.28H71.16A1.73,1.73,0,0,0,72.9,23.1a1.53,1.53,0,0,0,1.46-.75h1.21A2.65,2.65,0,0,1,72.87,24.13Zm-1.73-3.62h3.22a1.51,1.51,0,0,0-1.59-1.43A1.58,1.58,0,0,0,71.14,20.51Z"/><path class="cls-2" d="M79.07,21.2l-1,1V24h-1.2V15.93h1.2v4.8l2.46-2.53h1.57l-2.16,2.15L82.15,24H80.74Z"/><path class="cls-2" d="M83.41,22.46V19.17h-1v-1h1V16.81h1.2V18.2H86v1H84.61v3.12c0,.63.21.74.66.74H86v1c-.43,0-.59,0-1,0C84,24,83.41,23.74,83.41,22.46Z"/></g></g></svg>