<svg xmlns="http://www.w3.org/2000/svg" viewBox="0 0 80.83 42.69"><defs><style>.cls-1{fill:#DEDE42;}.cls-2{fill:none;stroke:#ffffff;stroke-width:1.8px;}</style></defs><g id="Layer_2" data-name="Layer 2"><g id="Layer_1-2" data-name="Layer 1"><path class="cls-1" d="M23.91,16.07a3.85,3.85,0,0,1-4-4,3.85,3.85,0,0,1,4-3.92,3.77,3.77,0,0,1,3.9,4.08v.45H22.11A1.84,1.84,0,0,0,24,14.44a1.66,1.66,0,0,0,1.58-.82H27.7A3.67,3.67,0,0,1,23.91,16.07Zm-1.82-4.78h3.45a1.59,1.59,0,0,0-1.7-1.51A1.67,1.67,0,0,0,22.09,11.29Z"/><path class="cls-1" d="M28.66,12.08a3.87,3.87,0,0,1,4-3.92,3.53,3.53,0,0,1,3.74,3H34.22A1.54,1.54,0,0,0,32.67,10c-1,0-1.74.86-1.74,2.11s.73,2.18,1.74,2.18a1.52,1.52,0,0,0,1.54-1.18h2.2a3.58,3.58,0,0,1-3.76,3A3.85,3.85,0,0,1,28.66,12.08Z"/><path class="cls-1" d="M37.23,12.08a3.87,3.87,0,0,1,4.09-3.92,3.86,3.86,0,0,1,4.09,3.92,4.09,4.09,0,0,1-8.18,0Zm5.91,0a1.84,1.84,0,1,0-3.64,0c0,1.32.74,2.18,1.82,2.18S43.14,13.42,43.14,12.08Z"/><path class="cls-1" d="M51.61,15a2.6,2.6,0,0,1-2.21,1.07c-1.6,0-2.75-1-2.75-3V8.35h2.21v4.32c0,1,.51,1.49,1.31,1.49s1.37-.51,1.37-1.72V8.35h2.21v7.54H51.61Z"/><path class="cls-1" d="M56,13.84V10H54.79V8.35H56V6.47h2.17V8.35h1.68V10H58.18v3.36c0,.76.23.9.83.9h.85v1.65c-.51,0-.94,0-1.65,0C56.83,15.91,56,15.5,56,13.84Z"/><path class="cls-1" d="M64.57,16.07a3.85,3.85,0,0,1-4-4,3.85,3.85,0,0,1,4-3.92,3.77,3.77,0,0,1,3.9,4.08v.45H62.77a1.83,1.83,0,0,0,1.88,1.75,1.66,1.66,0,0,0,1.58-.82h2.13A3.67,3.67,0,0,1,64.57,16.07Zm-1.82-4.78H66.2a1.59,1.59,0,0,0-1.7-1.51A1.67,1.67,0,0,0,62.75,11.29Z"/><path class="cls-1" d="M36.19,28.09H33.9l-2.79-7.54H33.4l1.7,5.19,1.69-5.19H39Z"/><path class="cls-1" d="M39.05,24.28a3.87,3.87,0,0,1,4.09-3.92,3.86,3.86,0,0,1,4.09,3.92,4.09,4.09,0,0,1-8.18,0Zm5.91,0a1.84,1.84,0,1,0-3.64,0c0,1.33.74,2.18,1.82,2.18S45,25.62,45,24.28Z"/><path class="cls-1" d="M48.41,17.61h2.23v1.84H48.41Zm0,2.94h2.21v7.54H48.41Z"/><path class="cls-1" d="M54.5,28.09H52.28V20.55h2.14v1.12A2.44,2.44,0,0,1,55,21a2.29,2.29,0,0,1,1.57-.53,2.83,2.83,0,0,1,.54,0v2a4.45,4.45,0,0,0-.74,0,1.61,1.61,0,0,0-1.82,1.74Z"/><path class="cls-2" d="M2.15,40.45,7.81,29.31V10.37S6.68.9,18,.9H73.7s6.23.56,6.23,8.36V26s0,7.79-9.07,7.79H14.05Z"/></g></g></svg>