<svg xmlns="http://www.w3.org/2000/svg" viewBox="0 0 53.21 50.36"><defs><style>.cls-1{fill:#e2e738;}</style></defs><title>Einschreibeinfos</title><g id="Layer_2" data-name="Layer 2"><g id="Layer_1-2" data-name="Layer 1"><path class="cls-1" d="M37.23,42.36c0,6.14-6,6.25-6.25,6.25H8c-6.15,0-6.25-6-6.25-6.25V20.81c0-6.15,6-6.25,6.25-6.25H26V12.8H8c-2.77,0-8,1.67-8,8V42.36c0,2.77,1.67,8,8,8H31c2.77,0,8-1.67,8-8V24.55H37.23Z"/><polygon class="cls-1" points="31.53 25.58 53.21 4.94 48.26 0 26.59 20.64 31.53 25.58"/><polygon class="cls-1" points="22.74 29.84 30.55 26.87 25.17 21.75 22.74 29.84"/><rect class="cls-1" x="4.4" y="30.22" width="13.55" height="1.76"/><rect class="cls-1" x="4.4" y="36.04" width="29.85" height="1.76"/><rect class="cls-1" x="4.4" y="42.51" width="29.77" height="1.76"/></g></g></svg>