<svg xmlns="http://www.w3.org/2000/svg" width="49.933" height="50" viewBox="0 0 49.933 50">
  <path id="Path_193" data-name="Path 193" d="M246.677,913.985l27.907.3a10.672,10.672,0,0,1,10.927,10.69l-.171,28.144a10.928,10.928,0,0,1-11,10.862l-4.4-.027.118-19.321,6.405.039,1.126-7.622-7.485-.045.032-5.2a2.941,2.941,0,0,1,2.95-2.914l4.84.03.043-7.024-6.082-.281a8.933,8.933,0,0,0-9.589,9.044l-.039,6.3-6.4-.04-.047,7.628,6.405.04-.118,19.321-15.661-.1a10.928,10.928,0,0,1-10.861-10.995l.171-27.974A10.928,10.928,0,0,1,246.677,913.985Z" transform="translate(-235.579 -913.985)" fill="#fff"/>
</svg>
