<svg xmlns="http://www.w3.org/2000/svg" viewBox="0 0 59.7 42.69"><defs><style>.cls-1{fill:none;stroke:#EA5060;stroke-width:1.8px;}.cls-2{fill:#503244;}</style></defs><title>FR_Vektor</title><g id="Layer_2" data-name="Layer 2"><g id="Layer_1-2" data-name="Layer 1"><path class="cls-1" d="M2.15,40.45,7.81,29.31V10.37S6.68.9,18,.9H52.57s6.23.56,6.23,8.36V26s0,7.79-9.06,7.79H14.05Z"/><path class="cls-2" d="M23,18v6H19.52V8.88H30.09v2.94H23v3.44h6.39V18Z"/><path class="cls-2" d="M35.72,18.54V24H32.26V8.88h7c3.83,0,5.45,2.18,5.45,4.75a4.38,4.38,0,0,1-3,4.35v0c.17.3.3.5.54.93L45.14,24h-4l-2.8-5.17c-.16-.26-.2-.3-.54-.3Zm0-2.81h3.11c1.56,0,2.36-.8,2.36-2s-.82-2-2.36-2H35.72Z"/></g></g></svg>