<svg xmlns="http://www.w3.org/2000/svg" width="38.998" height="38.229" viewBox="0 0 38.998 38.229">
  <path id="Path_223" data-name="Path 223" d="M361.13,892.033a19.118,19.118,0,1,0,19.5,19.115A19.311,19.311,0,0,0,361.13,892.033ZM371.877,921.9h-4.62v-2a9.018,9.018,0,0,1-6.453,2.382A11.282,11.282,0,0,1,349.285,911c0-6.125,5.4-11.107,12.028-11.107a13.384,13.384,0,0,1,10.031,4.234l.246.281-4.131,3.236-.218-.271a7.1,7.1,0,0,0-5.991-2.895,6.285,6.285,0,0,0-6.645,6.492,6.412,6.412,0,0,0,6.645,6.758c2.784,0,5.014-1.534,5.471-3.7H360.8v-4.38h11.076Z" transform="translate(-341.631 -892.033)" fill="#fff"/>
</svg>
