<svg xmlns="http://www.w3.org/2000/svg" width="34.016" height="33.604" viewBox="0 0 34.016 33.604">
  <path id="Path_183" data-name="Path 183" d="M575.212,160.988a3.356,3.356,0,0,0-3.262,2.582h-3.886A6.671,6.671,0,0,0,567.02,160l2.744-2.744a3.326,3.326,0,0,0,2.128.78,3.363,3.363,0,1,0-3.362-3.362,3.323,3.323,0,0,0,.406,1.568l-2.72,2.718a6.688,6.688,0,0,0-3.3-1.912v-3.364a3.35,3.35,0,1,0-1.3-.03v3.216c-.09,0-.176-.026-.27-.026a6.676,6.676,0,0,0-3.568,1.044l-2.168-2.168a3.377,3.377,0,1,0-.866.976l2,1.994a6.684,6.684,0,0,0-1.988,3.576h-3.622a3.366,3.366,0,1,0,.128,1.3h3.362a6.665,6.665,0,0,0,1.262,3.9l-2.542,2.54a3.374,3.374,0,1,0,.94.9l2.46-2.46a6.681,6.681,0,0,0,3.576,1.744v3.838a3.368,3.368,0,1,0,1.3-.092v-3.67a6.662,6.662,0,0,0,3.624-1.232l2.726,2.724a3.366,3.366,0,1,0,.9-.94l-2.642-2.644a6.7,6.7,0,0,0,1.716-3.3H571.9a3.357,3.357,0,1,0,3.31-3.884" transform="translate(-544.558 -147.018)" fill="#ff4f61"/>
</svg>
