<svg id="Group_199" data-name="Group 199" xmlns="http://www.w3.org/2000/svg" width="49.954" height="49.853" viewBox="0 0 49.954 49.853">
  <path id="Path_190" data-name="Path 190" d="M177.752,942.958a6.526,6.526,0,1,0,6.486,6.566,6.525,6.525,0,0,0-6.486-6.566" transform="translate(-152.802 -924.576)" fill="#FFF"/>
  <path id="Path_191" data-name="Path 191" d="M182.939,936.585a2.36,2.36,0,1,1,2.374-2.345,2.36,2.36,0,0,1-2.374,2.345M172.7,954.251a9.967,9.967,0,1,1,10.028-9.906,9.968,9.968,0,0,1-10.028,9.906m7.668-25.587-15.135-.092a7.778,7.778,0,0,0-7.794,7.7l-.1,16.126a7.777,7.777,0,0,0,7.7,7.794l15.134.093a7.777,7.777,0,0,0,7.794-7.7l.1-16.126a7.777,7.777,0,0,0-7.7-7.794" transform="translate(-147.806 -919.385)" fill="#FFF"/>
  <path id="Path_192" data-name="Path 192" d="M185.369,947.414a10.56,10.56,0,0,1-10.594,10.465l-15.134-.093a10.56,10.56,0,0,1-10.465-10.593l.1-16.127A10.56,10.56,0,0,1,159.868,920.6l15.134.092a10.561,10.561,0,0,1,10.465,10.594Zm-3.76-33.045-28.121-.172a10.859,10.859,0,0,0-10.9,10.818l-.17,27.914a10.857,10.857,0,0,0,10.765,10.949l28.12.172a10.857,10.857,0,0,0,10.9-10.817l.171-27.914a10.857,10.857,0,0,0-10.765-10.949" transform="translate(-142.42 -914.197)" fill="#FFF"/>
</svg>
