<svg xmlns="http://www.w3.org/2000/svg" viewBox="0 0 267.47 150.8"><defs><style>.cls-1{fill:#dede42;}</style></defs><title>Logo_G</title><g id="Layer_2" data-name="Layer 2"><g id="Layer_1-2" data-name="Layer 1"><path class="cls-1" d="M105.81,143l3.3-1.8c1.62-.88,3-.46,3.65.71a2,2,0,0,1-.1,2.11,2.23,2.23,0,0,1,2.17,1.24c.78,1.42.23,2.82-1.47,3.75l-3.29,1.79Zm2.21.51,1,1.79,1.74-1c.72-.39.86-1,.57-1.49s-.83-.69-1.56-.29Zm1.69,3.11,1.12,2,1.66-.9c.77-.42,1.12-1,.74-1.73s-1.09-.75-1.86-.33Z"/><path class="cls-1" d="M113.31,139.54a1,1,0,0,1,.39-1.3,1,1,0,1,1,.92,1.68A1,1,0,0,1,113.31,139.54Zm1.1,1.7,1.43-.78,3,5.55-1.43.78Z"/><path class="cls-1" d="M124.23,139.63l.15.29-4.17,2.28a1.6,1.6,0,0,0,2.19.49,2,2,0,0,0,1-1.65l1.44.16a3.29,3.29,0,0,1-1.82,2.7,3.31,3.31,0,0,1-3.22-5.79A3.14,3.14,0,0,1,124.23,139.63Zm-4.58,1.54,2.65-1.44a1.33,1.33,0,0,0-1.85-.42A1.47,1.47,0,0,0,119.65,141.17Z"/><path class="cls-1" d="M122.48,133.63l1.43-.78,4.37,8-1.42.78Z"/><path class="cls-1" d="M128.2,130l1.6-.87,1.06,10.59-1.61.87Z"/><path class="cls-1" d="M130.89,129.33l3.3-1.8c1.61-.88,3-.46,3.65.71a2,2,0,0,1-.11,2.11,2.24,2.24,0,0,1,2.18,1.24c.78,1.43.23,2.82-1.48,3.75l-3.29,1.8Zm2.2.51,1,1.79,1.74-.95a1,1,0,0,0,.57-1.49c-.28-.5-.84-.69-1.56-.29Zm1.7,3.11,1.12,2.06,1.66-.91c.77-.42,1.12-1,.74-1.73s-1.09-.74-1.86-.32Z"/><path class="cls-1" d="M138.39,125.87a1,1,0,0,1,1.69-.92,1,1,0,0,1-1.69.92Zm1.09,1.7,1.43-.78,3,5.55-1.43.78Z"/><path class="cls-1" d="M149.31,126l.15.28-4.18,2.28a1.6,1.6,0,0,0,2.19.49,2,2,0,0,0,1-1.65l1.44.16a3.28,3.28,0,0,1-1.83,2.7,3.31,3.31,0,0,1-3.21-5.79C146.51,123.55,148.29,124.11,149.31,126Zm-4.58,1.54,2.65-1.45a1.33,1.33,0,0,0-1.86-.41A1.45,1.45,0,0,0,144.73,127.51Z"/><path class="cls-1" d="M153.36,127.21l-1.43.77-3-5.55,1.4-.76.42.73a2.18,2.18,0,0,1,1.2-1.78,2.07,2.07,0,0,1,3,1l2,3.6-1.43.78-1.76-3.23c-.43-.79-1-1-1.63-.64a1.34,1.34,0,0,0-.42,2Z"/><path class="cls-1" d="M159.85,123.67l-1.43.78-3-5.55,1.4-.76.42.72a2.2,2.2,0,0,1,1.2-1.78,2.07,2.07,0,0,1,3,1l2,3.61-1.43.78-1.76-3.23c-.43-.8-1-1-1.63-.64a1.33,1.33,0,0,0-.43,1.94Z"/><path class="cls-1" d="M168.69,115.4l.15.29L164.66,118a1.6,1.6,0,0,0,2.2.49,2,2,0,0,0,1-1.64l1.44.15a3.3,3.3,0,0,1-1.82,2.71,3.31,3.31,0,0,1-3.22-5.79A3.13,3.13,0,0,1,168.69,115.4Zm-4.58,1.54,2.65-1.44a1.34,1.34,0,0,0-1.86-.42A1.46,1.46,0,0,0,164.11,116.94Z"/><path class="cls-1" d="M100.28,133.91a4.61,4.61,0,0,1,1.88-6.25,4.44,4.44,0,0,1,4.46,0l-.82,1.61a2.6,2.6,0,0,0-2.85-.13,2.73,2.73,0,0,0-1.09,3.9,2.84,2.84,0,0,0,3.92,1.3,2.61,2.61,0,0,0,1.43-2.53L109,132a4.64,4.64,0,0,1-8.71,1.94Z"/><path class="cls-1" d="M114.81,127.66l.15.28-4.18,2.28a1.61,1.61,0,0,0,2.2.49,2,2,0,0,0,1-1.64l1.44.15a3.3,3.3,0,0,1-1.82,2.71,3.32,3.32,0,0,1-3.22-5.8A3.14,3.14,0,0,1,114.81,127.66Zm-4.58,1.54,2.65-1.45a1.35,1.35,0,0,0-1.86-.41A1.46,1.46,0,0,0,110.23,129.2Z"/><path class="cls-1" d="M118.86,128.9l-1.43.78-3-5.56,1.39-.76.43.73a2.18,2.18,0,0,1,1.19-1.78,2.08,2.08,0,0,1,3,1l2,3.61-1.42.78-1.77-3.24c-.43-.79-1-1-1.63-.63a1.33,1.33,0,0,0-.42,1.94Z"/><path class="cls-1" d="M126.79,124.58l-1.1.6c-1.09.59-1.82.4-2.6-1l-1.35-2.47-.77.42-.65-1.19.77-.42-.8-1.46,1.42-.77.8,1.46,1.25-.68.65,1.18-1.25.69,1.4,2.58c.21.38.39.56.86.31l.72-.4Z"/><path class="cls-1" d="M129.39,123.16l-1.43.78-3-5.56,1.39-.76.49.84a2.26,2.26,0,0,1,1.23-1.83l.25-.11.77,1.41-.38.2a1.61,1.61,0,0,0-.76,2.35Z"/><path class="cls-1" d="M135.91,116.15l.16.29-4.18,2.28a1.59,1.59,0,0,0,2.19.48,2,2,0,0,0,1-1.64l1.44.16a3.26,3.26,0,0,1-1.82,2.7,3.31,3.31,0,0,1-3.21-5.79A3.12,3.12,0,0,1,135.91,116.15Zm-4.58,1.54,2.65-1.44a1.33,1.33,0,0,0-1.85-.42A1.48,1.48,0,0,0,131.33,117.69Z"/><path class="cls-1" d="M144.38,115l-1.1.6c-1.09.59-1.82.41-2.6-1l-1.35-2.48-.77.42-.65-1.19.77-.42-.8-1.46,1.42-.77.8,1.46,1.25-.68.65,1.19-1.25.68,1.4,2.58c.21.39.39.56.85.31l.73-.4Z"/><path class="cls-1" d="M147,113.57l-1.43.78-4.37-8,1.43-.78,1.74,3.19a2.18,2.18,0,0,1,1.19-1.75,2.08,2.08,0,0,1,3,1l2,3.61-1.43.78-1.77-3.23c-.43-.8-1-1-1.63-.64a1.33,1.33,0,0,0-.42,1.94Z"/><path class="cls-1" d="M155.82,105.3l.16.29-4.18,2.27a1.58,1.58,0,0,0,2.19.49,2,2,0,0,0,1-1.64l1.44.15a3.28,3.28,0,0,1-1.82,2.71,3.31,3.31,0,0,1-3.21-5.79A3.12,3.12,0,0,1,155.82,105.3Zm-5.47-3.71,1.84-1L151.6,103l-1.19.65Zm.89,5.25,2.65-1.44A1.33,1.33,0,0,0,152,105,1.48,1.48,0,0,0,151.24,106.84Z"/><path class="cls-1" d="M156,98.45l1.16-.62,2.29.88-1.35.74L157,99l-.22,1.09-1.35.73Zm5.6,6.55a2.4,2.4,0,0,1-1.28,1.48,2.12,2.12,0,0,1-3-.65c-.6-1.1,0-1.91,1.25-2.91l.36-.28c.43-.34.67-.54.84-.7l-.06-.12c-.33-.6-.77-.67-1.44-.31a1,1,0,0,0-.54,1.44l-1.36.74c-.68-1.18,0-2.57,1.37-3.34s2.62-.7,3.4.75l1.17,2.16c.27.5.4.53.8.31l.53,1a1.93,1.93,0,0,1-.54.4A1.3,1.3,0,0,1,161.55,105Zm-1.56.15a1.12,1.12,0,0,0,.58-1.6l-.3-.55c-.23.2-.54.47-1,.85s-.71.81-.52,1.15S159.42,105.46,160,105.15Z"/><path class="cls-1" d="M167.63,102.32l-1.1.6c-1.09.59-1.82.4-2.6-1l-1.35-2.47-.77.42-.65-1.19.77-.42-.8-1.46,1.42-.77.8,1.46,1.25-.69.65,1.19-1.25.68,1.4,2.59c.21.38.39.56.86.3l.72-.39Z"/><path class="cls-1" d="M170.23,100.9l-1.43.78-3-5.56,1.39-.76.49.84a2.26,2.26,0,0,1,1.23-1.83,1.47,1.47,0,0,1,.25-.11l.77,1.41-.38.2a1.6,1.6,0,0,0-.76,2.34Z"/><path class="cls-1" d="M176.75,93.89l.16.29-4.18,2.27a1.58,1.58,0,0,0,2.19.49,2,2,0,0,0,1-1.64l1.44.16a3.26,3.26,0,0,1-1.82,2.7,3.31,3.31,0,0,1-3.21-5.79A3.12,3.12,0,0,1,176.75,93.89Zm-4.58,1.54L174.82,94a1.33,1.33,0,0,0-1.85-.42A1.48,1.48,0,0,0,172.17,95.43Z"/><path class="cls-1" d="M178.22,87a1,1,0,1,1,1.31.39A1,1,0,0,1,178.22,87Zm3.64,8.56a2.27,2.27,0,0,0,.38-.17c.33-.18.49-.44.23-.91l-3.15-5.78,1.43-.78L184,93.84a1.73,1.73,0,0,1-.76,2.73,5,5,0,0,1-.64.3Z"/><path class="cls-1" d="M189.14,87.14l.16.28-4.18,2.28a1.6,1.6,0,0,0,2.19.49,2,2,0,0,0,1-1.64l1.44.15a3.26,3.26,0,0,1-1.82,2.71,3.31,3.31,0,0,1-3.21-5.8A3.13,3.13,0,0,1,189.14,87.14Zm-4.58,1.54,2.65-1.45a1.34,1.34,0,0,0-1.85-.41A1.48,1.48,0,0,0,184.56,88.68Z"/><path class="cls-1" d="M194.88,86.57a2.2,2.2,0,0,1-1.19,1.71,2.14,2.14,0,0,1-3.06-1l-2-3.63,1.45-.78,1.78,3.27a1.11,1.11,0,0,0,1.63.59,1.27,1.27,0,0,0,.41-1.87l-1.71-3.14,1.43-.78,3,5.55-1.38.76Z"/><path class="cls-1" d="M199.67,84.85l-1.43.78-3-5.55,1.39-.77L197,80a2.17,2.17,0,0,1,1.2-1.78,2.07,2.07,0,0,1,3,1l2,3.61-1.43.78L200,80.45c-.43-.79-1-1-1.63-.63a1.33,1.33,0,0,0-.42,1.94Z"/><path class="cls-1" d="M208.51,76.58l.16.29-4.18,2.27a1.59,1.59,0,0,0,2.19.49,2,2,0,0,0,1-1.64l1.44.15a3.26,3.26,0,0,1-1.82,2.71,3.31,3.31,0,0,1-3.21-5.79A3.12,3.12,0,0,1,208.51,76.58Zm-4.58,1.54,2.65-1.44a1.33,1.33,0,0,0-1.85-.42A1.48,1.48,0,0,0,203.93,78.12Z"/><path class="cls-1" d="M215.21,75.61l1.47,2.68-1.43.78-4.17-7.64,1.43-.78.42.77a2.19,2.19,0,0,1,1.26-1.84,3.05,3.05,0,0,1,4.12,1.48,3.12,3.12,0,0,1-1,4.32A2.56,2.56,0,0,1,215.21,75.61Zm1.08-1.37a1.66,1.66,0,0,0,.56-2.38,1.64,1.64,0,0,0-2.27-.77,1.62,1.62,0,0,0-.59,2.33h0v0A1.67,1.67,0,0,0,216.29,74.24Z"/><path class="cls-1" d="M224.15,70.61A2.2,2.2,0,0,1,223,72.33a2.13,2.13,0,0,1-3.05-1l-2-3.62,1.44-.79,1.79,3.28a1.11,1.11,0,0,0,1.63.58,1.29,1.29,0,0,0,.41-1.87l-1.72-3.14,1.43-.78,3,5.55-1.39.76Z"/><path class="cls-1" d="M230.72,68.07a2.35,2.35,0,0,1-2.16.14l.36.7-1.4.76-4.38-8,1.43-.77,1.67,3.05a2.65,2.65,0,0,1,1.36-1.67,3.06,3.06,0,0,1,4.12,1.48A3.13,3.13,0,0,1,230.72,68.07Zm-1-1.17A1.79,1.79,0,0,0,228,63.77a1.62,1.62,0,0,0-.58,2.33A1.65,1.65,0,0,0,229.69,66.9Z"/><path class="cls-1" d="M230.08,57.86l1.43-.78,4.38,8-1.43.78Z"/><path class="cls-1" d="M233.35,57a1,1,0,1,1,1.3.38A1,1,0,0,1,233.35,57Zm1.09,1.7,1.43-.78,3,5.55-1.43.78Z"/><path class="cls-1" d="M238.58,60A3.27,3.27,0,0,1,240,55.5a3.39,3.39,0,0,1,3.17-.09l-.6,1.51a1.89,1.89,0,0,0-1.84-.06,1.66,1.66,0,0,0-.64,2.36,1.68,1.68,0,0,0,2.34.76,1.82,1.82,0,0,0,.93-1.6l1.58.26a3.27,3.27,0,0,1-1.79,2.7A3.22,3.22,0,0,1,238.58,60Z"/><path class="cls-1" d="M95.39,116.27l3.5,6.41-1.54.83-3.5-6.41-2.27,1.25-.76-1.4,6.09-3.32.76,1.39Z"/><path class="cls-1" d="M103.71,120l-1.43.78-4.37-8,1.43-.78,1.73,3.19a2.22,2.22,0,0,1,1.2-1.75,2.07,2.07,0,0,1,3,1l2,3.6-1.43.78-1.76-3.23c-.43-.79-1-1-1.63-.64A1.34,1.34,0,0,0,102,117Z"/><path class="cls-1" d="M112.55,111.77l.16.29-4.18,2.28a1.6,1.6,0,0,0,2.19.49,2,2,0,0,0,1-1.65l1.44.16a3.27,3.27,0,0,1-1.82,2.7,3.31,3.31,0,0,1-3.21-5.79A3.13,3.13,0,0,1,112.55,111.77ZM108,113.32l2.65-1.45a1.32,1.32,0,0,0-1.85-.41A1.47,1.47,0,0,0,108,113.32Z"/><path class="cls-1" d="M118.23,111.5A2.35,2.35,0,0,1,117,113a2.14,2.14,0,0,1-3-.65c-.6-1.1,0-1.91,1.25-2.91l.36-.28a10.81,10.81,0,0,0,.85-.71l-.07-.12c-.32-.59-.76-.66-1.43-.3a1,1,0,0,0-.55,1.44l-1.36.74c-.67-1.18,0-2.57,1.37-3.34s2.63-.71,3.41.75l1.16,2.16c.27.5.4.53.81.3l.53,1a2.1,2.1,0,0,1-.54.4A1.32,1.32,0,0,1,118.23,111.5Zm-1.55.15a1.12,1.12,0,0,0,.58-1.6l-.3-.55c-.23.2-.54.47-1,.84s-.72.82-.53,1.16S116.1,112,116.68,111.65Z"/><path class="cls-1" d="M124.23,108.86l-1.1.6c-1.09.6-1.82.41-2.61-1L119.17,106l-.76.42-.65-1.18.77-.42-.8-1.47,1.42-.77L120,104l1.25-.68.65,1.19-1.26.68,1.41,2.59c.21.38.39.55.85.3l.73-.39Z"/><path class="cls-1" d="M129.13,102.74l.16.28-4.18,2.28a1.59,1.59,0,0,0,2.19.49,2,2,0,0,0,1-1.64l1.44.15a3.3,3.3,0,0,1-1.82,2.71,3.32,3.32,0,0,1-3.22-5.8A3.14,3.14,0,0,1,129.13,102.74Zm-4.58,1.54,2.65-1.45a1.34,1.34,0,0,0-1.85-.41A1.47,1.47,0,0,0,124.55,104.28Z"/><path class="cls-1" d="M133.18,104l-1.42.78-3-5.55,1.4-.77.48.84a2.26,2.26,0,0,1,1.23-1.83l.25-.11.77,1.41-.37.21a1.6,1.6,0,0,0-.77,2.34Z"/><path class="cls-1" d="M140.48,100,136,102.46l-.71-1.28,1.16-4.61-2.75,1.5-.65-1.2,4.41-2.4.69,1.27-1.11,4.6,2.82-1.54Z"/><path class="cls-1" d="M145.51,93.81l.16.29-4.18,2.27a1.58,1.58,0,0,0,2.19.49,2,2,0,0,0,1-1.64l1.44.15a3.3,3.3,0,0,1-1.82,2.71,3.31,3.31,0,0,1-3.21-5.79A3.12,3.12,0,0,1,145.51,93.81Zm-4.58,1.54,2.65-1.44a1.33,1.33,0,0,0-1.85-.42A1.47,1.47,0,0,0,140.93,95.35Z"/><path class="cls-1" d="M149.57,95.05l-1.43.78-3-5.55,1.4-.76.42.72a2.2,2.2,0,0,1,1.2-1.78,2.07,2.07,0,0,1,3,1l2,3.61-1.43.78-1.76-3.23c-.44-.8-1-1-1.63-.64a1.32,1.32,0,0,0-.43,1.94Z"/><path class="cls-1" d="M157.49,90.73l-1.1.6c-1.09.59-1.82.41-2.6-1l-1.35-2.48-.77.42L151,87.05l.77-.42L151,85.17l1.41-.77.8,1.46,1.25-.68.65,1.19-1.25.68,1.41,2.58c.21.39.39.56.85.31l.72-.4Z"/><path class="cls-1" d="M160.1,89.31l-1.43.78-3-5.55,1.4-.76.48.83a2.26,2.26,0,0,1,1.23-1.83,1.27,1.27,0,0,1,.25-.1l.77,1.4-.37.21a1.6,1.6,0,0,0-.77,2.34Z"/><path class="cls-1" d="M166.13,85.12a2.19,2.19,0,0,1-1.19,1.72,2.14,2.14,0,0,1-3.06-1l-2-3.63,1.44-.78,1.78,3.27a1.11,1.11,0,0,0,1.63.58,1.26,1.26,0,0,0,.41-1.86l-1.71-3.14,1.43-.78,3,5.55-1.38.75Z"/><path class="cls-1" d="M170.92,83.41l-1.42.78-3-5.56,1.4-.76.4.7a2.16,2.16,0,0,1,1.12-1.7,2,2,0,0,1,2.13,0A2.37,2.37,0,0,1,172.75,75a2.07,2.07,0,0,1,3,.94l2,3.68-1.44.79-1.78-3.26c-.42-.77-1-1-1.58-.63s-.81,1-.34,1.87l1.7,3.11-1.43.78-1.78-3.26c-.42-.77-1-1-1.58-.63s-.82,1-.35,1.86Z"/><path class="cls-1" d="M178.14,70a1,1,0,0,1,.39-1.3,1,1,0,1,1-.39,1.3Zm3.63,8.56a2.27,2.27,0,0,0,.38-.17.58.58,0,0,0,.23-.91l-3.15-5.78,1.43-.78,3.21,5.88c.66,1.22.47,2-.76,2.72a5.21,5.21,0,0,1-.64.31Z"/><path class="cls-1" d="M188.38,73a2.17,2.17,0,0,1-1.19,1.71,2.14,2.14,0,0,1-3.06-1l-2-3.63,1.44-.78,1.78,3.28a1.11,1.11,0,0,0,1.63.58,1.27,1.27,0,0,0,.41-1.87l-1.71-3.14,1.43-.78,3,5.55-1.38.76Z"/><path class="cls-1" d="M193.18,71.28l-1.43.78-3-5.55,1.4-.76.42.72a2.2,2.2,0,0,1,1.2-1.78,2.07,2.07,0,0,1,3,1l2,3.61-1.43.78-1.76-3.24c-.43-.79-1-1-1.63-.63a1.32,1.32,0,0,0-.43,1.94Z"/><path class="cls-1" d="M202,69.33c-1.5.81-2.94.71-3.79-.46l1.42-.77c.41.46,1,.42,1.69,0a1.27,1.27,0,0,0,.65-1.92l-.41-.75a2.3,2.3,0,0,1-1.3,1.66,3.13,3.13,0,0,1-3-5.49,2.28,2.28,0,0,1,2.1-.21l-.29-.6,1.38-.75,2.93,5.37C204.35,67.1,203.62,68.47,202,69.33Zm-1.55-5.93a1.57,1.57,0,0,0-2.14-.62,1.63,1.63,0,0,0,1.56,2.86A1.57,1.57,0,0,0,200.49,63.4Z"/><path class="cls-1" d="M208.91,59.25l.15.29-4.17,2.28a1.59,1.59,0,0,0,2.19.48,2,2,0,0,0,1-1.64l1.44.16a3.29,3.29,0,0,1-1.82,2.7,3.31,3.31,0,0,1-3.22-5.79A3.13,3.13,0,0,1,208.91,59.25Zm-4.58,1.54L207,59.35a1.33,1.33,0,0,0-1.85-.42A1.47,1.47,0,0,0,204.33,60.79Z"/><path class="cls-1" d="M210.64,60.75l.28-1.47a2.63,2.63,0,0,0,2.05-.19c.56-.3.93-.7.72-1.08s-.45-.32-1.24,0l-.56.2c-1.22.42-2.14.31-2.65-.63a2.34,2.34,0,0,1,1.28-3.09A3.91,3.91,0,0,1,213.1,54l-.2,1.46a2.5,2.5,0,0,0-1.76.21c-.51.27-.86.68-.66,1s.42.27,1.22,0l.58-.2c1.24-.44,2.21-.23,2.71.69.69,1.26-.16,2.47-1.39,3.14A4.19,4.19,0,0,1,210.64,60.75Z"/><path class="cls-1" d="M215.93,48.75,219,47.08c1.86-1,3.35-.48,4.19,1s.44,3.13-1.4,4.13l-1.5.82,1.45,2.65-1.54.84Zm2.3.56,1.29,2.36,1.48-.81a1.29,1.29,0,0,0,.6-1.86,1.32,1.32,0,0,0-1.9-.5Z"/><path class="cls-1" d="M230.26,50.16a2.17,2.17,0,0,1-1.19,1.72,2.13,2.13,0,0,1-3-1l-2-3.63,1.44-.78,1.79,3.27a1.11,1.11,0,0,0,1.63.59,1.28,1.28,0,0,0,.41-1.87l-1.72-3.14,1.43-.78,3,5.55-1.39.76Z"/><path class="cls-1" d="M236.83,47.62a2.32,2.32,0,0,1-2.16.14l.36.71-1.4.76-4.37-8,1.43-.78,1.66,3.06a2.65,2.65,0,0,1,1.36-1.67,3.07,3.07,0,0,1,4.13,1.48A3.13,3.13,0,0,1,236.83,47.62Zm-1-1.16a1.79,1.79,0,0,0-1.71-3.13,1.62,1.62,0,0,0-.58,2.33A1.65,1.65,0,0,0,235.8,46.46Z"/><path class="cls-1" d="M236.19,37.42l1.43-.78,4.38,8-1.43.78Z"/><path class="cls-1" d="M239.46,36.55a1,1,0,1,1,1.3.39A.95.95,0,0,1,239.46,36.55Zm1.09,1.7,1.43-.78L245,43l-1.43.78Z"/><path class="cls-1" d="M248,41.38l-1.43.78-4.37-8,1.43-.78,2.6,4.77.68-3.35,1.79-1-.88,3.66,3.95,1.87-1.86,1-2.4-1.22c-.4-.21-.69.1-.52.42Z"/><path class="cls-1" d="M255.8,36.24A2.17,2.17,0,0,1,254.61,38a2.13,2.13,0,0,1-3.05-1l-2-3.63,1.44-.78,1.78,3.27a1.11,1.11,0,0,0,1.63.59,1.27,1.27,0,0,0,.41-1.87l-1.71-3.14,1.43-.78,3,5.55-1.39.76Z"/><path class="cls-1" d="M260.6,34.53l-1.43.78-3-5.55,1.4-.77.4.7a2.16,2.16,0,0,1,1.12-1.7,2,2,0,0,1,2.13,0,2.38,2.38,0,0,1,1.23-1.87,2.07,2.07,0,0,1,3,.94l2,3.68-1.44.79-1.78-3.26c-.41-.77-1-1-1.58-.63s-.81,1-.34,1.87l1.7,3.11-1.43.78-1.78-3.26c-.41-.77-.95-1-1.58-.63s-.82,1-.34,1.86Z"/><path class="cls-1" d="M189.69,19.26c.85,2.27,1.7,4.54,2.53,6.82a14.42,14.42,0,0,1,.67,6.89,97.58,97.58,0,0,1-1.77,10.93C189.84,49,187.54,53.64,183.2,57a8,8,0,0,1-5.73,1.75A4,4,0,0,1,174.38,57a9.25,9.25,0,0,1-1.79-6c.27-4,.56-7.92,1.1-11.85.44-3.17,2.23-5.86,3.88-8.53a3.33,3.33,0,0,1,2.79-1.84c2.62-.05,4.15,1.41,4,4a11.63,11.63,0,0,1-2.78,6.72,42.81,42.81,0,0,1-3.47,3.78,4.19,4.19,0,0,0-1.38,2.86c-.09,1.5-.47,3-.41,4.49a16,16,0,0,0,.82,4.19c.34,1.08,1,1.3,2.11,1a6.43,6.43,0,0,0,3.59-2.59,29.36,29.36,0,0,0,4.92-11,70.9,70.9,0,0,0,1.93-17.72c0-1.76-.18-3.52-.27-5.28Zm-12.38,21c1.79-2,3.62-3.92,3.64-7.07C178.74,35.51,177.45,37.65,177.31,40.25Z"/><path class="cls-1" d="M170,.62c1.61-.15,1.08-1.41,3,.15,3.29,4.45-1.27,21.22-1.59,30.5-.08,2.39-.25,4.51-.21,6.9a79,79,0,0,1-3.5,23.24,2.53,2.53,0,0,1-3.22,2.11C169.32,42.74,168,21.55,170,.62Z"/><path class="cls-1" d="M159.65,67.47c2-20.2.21-40.4-.33-60.59l1.11-.38c.72.73,1.95,1.37,2.08,2.19,2.77,4.78,2.93,6.35,2.31,15.9.63,6.27-.7,13.76-.94,20.36s-1.44,12.95-2.29,19.41a18.24,18.24,0,0,1-1,3.12Z"/><path class="cls-1" d="M152.35,12.14c3.33,2,5.23,7.62,4.2,12.16-4,.07-4.7-.39-5.16-4.06C151.05,17.58,150.11,14.81,152.35,12.14Z"/><path class="cls-1" d="M154.05,31c1.62.79,4.12-1.41,4.19-.19.23,4.25-.52,16.05,0,20.26a113.26,113.26,0,0,1-2.35,19,9.35,9.35,0,0,1-.76,2.09c-.07.16-.42.2-1,.45-.06-12-.13-23.81-.15-35.64C153.94,36.49,153.8,31.4,154.05,31Z"/><path class="cls-1" d="M147.88,77.49c-4.63-2.47-4.5-6.76-4.76-10.65-.43-6.51-.35-13.05-.69-19.57-.19-3.61-.8-7.19-1.29-11.29l2.64-2.64c.63,1.29,1.36,2.1,1.36,2.91,0,6.76,0,13.53-.22,20.28-.17,5.4.72,10.65,1.53,16.82.84-1.3,1.44-1.82,1.52-2.42a51.82,51.82,0,0,0,.9-8.2c-.1-7.53-.49-15.06-.72-22.6-.05-1.7-.28-3.49,1.76-5.26.58,1.35,1.37,2.36,1.41,3.41.33,9,.72,18.06.69,27.1A17.89,17.89,0,0,1,147.88,77.49Z"/><path class="cls-1" d="M130.72,35.45a4.32,4.32,0,0,1,4.77,1.77c4.25,5.11,5.69,11,5.81,17.47.1,5.65.39,11.29.63,16.93a17.16,17.16,0,0,1-1.8,8.75c-1,1.86-1.88,2.16-3.57.86a8.31,8.31,0,0,1-2.84-3.36,57.9,57.9,0,0,1-2.12-8.34c-1.77-8.82-1.5-17.73-.95-26.64C130.8,40.42,130.7,38,130.72,35.45Zm5.87,43.25c3.3-4.21,2-27.71-1.73-35.49C132.39,48.73,133.46,72.9,136.59,78.7Z"/><path class="cls-1" d="M110.7,33.93c2.34-2.22,2.87-2.06,4.76,1.65.63-1.12,1.11-2,1.61-2.86,1.46-2.58,3.28-2.86,5.12-.54a11.61,11.61,0,0,1,2.42,4.7c1.26,6.39,2.47,12.8,3.27,19.25,1.19,9.53,2,19.11,3,28.67.11,1.16.1,2.32.16,3.6-1.49.41-2.45.32-2.67-1.12-.53-3.39-1.13-6.78-1.51-10.19-1.28-11.44-2.36-22.9-3.77-34.32-.34-2.7-.78-5.65-3.37-7.82-1.49,1.57-1.47,3.41-1.37,5.06.37,6,.93,12.05,1.46,18.07.14,1.65.45,3.29.61,4.94q1.22,12.57,2.38,25.14c.14,1.49.15,3,.23,4.64-4.17-1.19-5.08-2.26-5.35-5.63-1-12.77-1.91-25.55-3.14-38.3-.41-4.22-1.63-8.37-2.57-12.54A10.78,10.78,0,0,0,110.7,33.93Z"/><path class="cls-1" d="M116.21,95.56c-7.82-1.42-10.12-6.75-11.77-12.32-1.45-4.91-2.22-10-3.34-15-.35-1.59-.8-3.15-1.28-4.7-2.32-7.34-2.18-14.84-1.33-22.35A72.43,72.43,0,0,1,100,33c.61-2.61,1.56-2.94,4.07-1.93a7.16,7.16,0,0,1,4.85,5.72c1,6.21.51,12.26-2.33,17.94-.64,1.29-1.83,2.29-3.17,3.91,1.58,8.37,3,17.28,5,26.06.69,3,2,6.24,5.57,7.57C114.8,92.61,115.19,94,116.21,95.56Zm-13-42.9c2.59-4.08,3.09-11.83,1-15C102.43,40.76,101.93,48.57,103.25,52.66Z"/><path class="cls-1" d="M104.38,103.65c-3.82.39-5-.11-6.16-3.55-2.44-7-4.79-14-6.9-21.06C88.47,69.5,86,59.86,83.14,50.32a99.15,99.15,0,0,0-4.06-9.74c-.66-1.56-1.31-3.13-2.35-5.65l4.66,1.21c1.21-3.7,2.4-7.37,3.6-11,5,2,10.59,9.46,10.59,13.8,0,1.39-.8,2.76-1.51,5l-4.83-6-.87.28c.53,3.73.8,7.53,1.65,11.19,1.8,7.81,3.79,15.59,5.89,23.32,2.61,9.59,5.43,19.12,8.13,28.69A17.07,17.07,0,0,1,104.38,103.65Z"/><path class="cls-1" d="M82.33,64a9.27,9.27,0,0,0-5.18-5.12c-2.32-1-4.36-2.2-5.55-4.76-1.1-2.36-2.95-2.64-4.87-.78a15.82,15.82,0,0,0-3.44,5.22c-2.14,5.23-4.9,10-9.72,13.11-8.17,5.25-16.94,8.14-26.79,5.44-1.76-.48-3.57-1-5.45.26A32.69,32.69,0,0,0,24,81.18a7.07,7.07,0,0,0,3,2.07c4.68,1.26,9.4,1.56,14.1-.12,1.65-.59,3.36-1,5.06-1.47,10.86-2.8,18.27-9.4,22.36-20.32a44,44,0,0,0,5.64,3.9,7.45,7.45,0,0,1,4,4.62q2.1,6.23,4.3,12.41a30.45,30.45,0,0,1,1.33,15.8,94.29,94.29,0,0,1-4.64,17.7,30.55,30.55,0,0,1-6.33,10.6c-6.15,6.39-13.48,9-22.25,6.56-8.56-2.35-15.19-7.7-21.09-14-7.88-8.38-13-18.45-16.79-29.19a58.38,58.38,0,0,1-2.25-31.94C13,46.11,19,36.59,30.27,31.43c8.65-3.95,17-2.74,24.82,2.49,1.52,1,2.76,1.06,4-.16s1.06-2.45.28-3.77a5.27,5.27,0,0,0-.48-.58c-4.39-5.59-10.78-7.51-17.2-9.35a3.56,3.56,0,0,0-1.13,0c-8.79.52-16.85,3.28-23.52,9A46.78,46.78,0,0,0,.61,59.54a69,69,0,0,0,5.5,37.89c8,17.53,20.12,30.71,37.69,38.85,17.92,8.3,37-2.38,42.42-18.73,1.11-3.33,2-6.73,3-10.1,1.71-5.9,3.31-11.83,2.45-18.06C90.87,81.85,86,71.48,82.33,64Z"/><path class="cls-1" d="M59.45,47.31c-.12-.27-.24-.53-.37-.79-.19-.43-.39-.86-.61-1.28s-.33-.6-.5-.89a10.72,10.72,0,0,1-.74-1.42C56,39.8,51.45,37,47.45,38a21.59,21.59,0,0,0-7.77,4.3,1,1,0,0,0-.46.79,1.16,1.16,0,0,0,.58.9,4,4,0,0,0,3,.68,3.53,3.53,0,0,0,2.35-1.48A4,4,0,0,1,50.23,42a7.43,7.43,0,0,1,2.76,3c-3.25,1.64-4.77,2.93-6.16,5.19l-.1.16.1.16a3.76,3.76,0,0,0,4.44,1.55,9.93,9.93,0,0,0,4.13-2.23,3,3,0,0,1,.46-.33h0l2.21,2,.45-.52.32-.35A2.71,2.71,0,0,0,59.45,47.31Zm-5.85.26C53.35,49.21,52.09,50,49.78,50A4.49,4.49,0,0,1,53.6,47.57Z"/><path class="cls-1" d="M49.14,62.63A33.45,33.45,0,0,1,46,65.08c-2.49,1.43-5,2.78-7.57,4.13-2.75,1.48-5.18,1.9-6.11-1.14-.51-1.67-.75-3.41-1.17-5.11-1.38-5.58-2-12.19-3.33-17.77a33.07,33.07,0,0,1-.43-3.5c3.24,2.49,7.25,14.35,8.09,22.88C40,65.93,43.62,61.11,49.14,62.63Z"/></g></g></svg>