<?xml version="1.0" encoding="UTF-8"?><svg id="Layer_2" xmlns="http://www.w3.org/2000/svg" viewBox="0 0 57.28 41.69"><defs><style>.cls-1{fill:#fff;}.cls-2{fill:#dede42;}</style></defs><g id="Layer_1-2"><g><polygon class="cls-2" points="41.7 32.67 34.59 27.72 30.35 39.86 24.17 32.49 21.46 41.69 18.56 33.23 10.88 41.38 12.87 31.05 2.76 34.75 8.67 27.34 1.93 25.42 7.36 21 0 14.47 8.94 14.73 6.24 8.27 13.08 9.76 13.59 0 18.97 7.07 22.33 .93 24.17 9.42 31.13 3.14 29.4 14.1 38.1 8.95 34.59 17.57 51.67 11.84 50.48 19.11 57.28 24.57 41.9 26.05 41.7 32.67"/><g><path class="cls-1" d="M12.47,16.11l.6,4.19-1.35,.19-.87-6.06,1.67-.24,3.08,3.84-.6-4.2,1.34-.19,.87,6.06-1.66,.24-3.08-3.83Z"/><path class="cls-1" d="M20.49,19.34c-1.3,.19-2.52-.55-2.73-2.03-.21-1.44,.79-2.49,2.03-2.67,1.27-.18,2.44,.52,2.67,2.09l.04,.27-3.37,.48c.16,.64,.68,.96,1.27,.88,.38-.05,.74-.24,.87-.62l1.26-.18c-.13,1.04-1.06,1.63-2.04,1.78Zm-1.49-2.68l2.05-.29c-.12-.54-.58-.84-1.14-.76-.54,.08-.92,.47-.91,1.05Z"/><path class="cls-1" d="M26.39,17.85c-.23,.46-.67,.74-1.23,.82-.95,.14-1.72-.35-1.89-1.54l-.4-2.81,1.32-.19,.37,2.57c.08,.58,.43,.84,.91,.77,.42-.06,.77-.42,.67-1.14l-.35-2.43,1.32-.19,.64,4.48-1.27,.18-.08-.53Z"/><path class="cls-1" d="M13.54,23.59l.6,4.19-1.35,.19-.87-6.06,1.67-.24,3.08,3.84-.6-4.2,1.34-.19,.87,6.06-1.66,.24-3.08-3.83Z"/><path class="cls-1" d="M18.83,24.8c-.2-1.43,.77-2.49,2.1-2.68,1.34-.19,2.56,.54,2.76,1.98,.21,1.45-.74,2.53-2.09,2.72-1.36,.19-2.56-.57-2.77-2.02Zm3.51-.5c-.11-.75-.62-1.19-1.26-1.1-.65,.09-1.01,.66-.9,1.41,.11,.79,.63,1.24,1.27,1.14,.65-.09,1.01-.66,.9-1.45Z"/><path class="cls-1" d="M27.63,25.32c-.24,.46-.67,.74-1.23,.82-.95,.14-1.72-.35-1.89-1.54l-.4-2.81,1.32-.19,.37,2.57c.08,.58,.43,.84,.91,.77,.42-.06,.77-.42,.67-1.14l-.35-2.43,1.32-.19,.64,4.48-1.27,.18-.08-.53Z"/><path class="cls-1" d="M32.52,25.15l-1.36,.19-2.3-4.25,1.36-.19,1.45,2.94,.56-3.23,1.3-.19-1.01,4.72Z"/><path class="cls-1" d="M36.84,24.64c-1.3,.19-2.52-.55-2.73-2.03-.21-1.44,.79-2.49,2.03-2.67,1.27-.18,2.44,.52,2.67,2.09l.04,.27-3.37,.48c.16,.64,.68,.96,1.27,.88,.38-.05,.74-.24,.87-.62l1.26-.18c-.13,1.04-1.06,1.63-2.04,1.78Zm-1.49-2.68l2.05-.29c-.12-.54-.58-.84-1.14-.76-.54,.08-.92,.47-.91,1.05Z"/><path class="cls-1" d="M42.69,23.18c-.24,.41-.67,.71-1.32,.81-.85,.12-1.73-.25-1.86-1.17-.13-.93,.57-1.37,1.73-1.73l1.01-.31v-.06c-.08-.48-.37-.64-.84-.57-.48,.07-.74,.33-.76,.76l-1.23,.18c0-1,.78-1.72,1.91-1.88,1.21-.17,2.04,.19,2.21,1.46l.26,1.91c.02,.15,.07,.41,.17,.95l-1.2,.17-.09-.51Zm-1.11-.18c.53-.08,.92-.45,.84-1.07l-.04-.3c-1.17,.32-1.66,.52-1.59,.95,.05,.35,.39,.48,.8,.42Z"/><path class="cls-1" d="M47.79,22.43c-.23,.46-.67,.74-1.23,.82-.95,.14-1.72-.35-1.89-1.54l-.4-2.81,1.32-.19,.37,2.57c.08,.58,.43,.84,.91,.77,.42-.06,.77-.42,.67-1.14l-.35-2.43,1.32-.19,.64,4.48-1.27,.18-.08-.53Z"/></g></g></g></svg>