<?xml version="1.0" encoding="UTF-8"?><svg id="Layer_2" xmlns="http://www.w3.org/2000/svg" viewBox="0 0 104.5 68.92"><defs><style>.cls-1{fill:#dede42;}</style></defs><g id="Layer_1-2"><g><g><path class="cls-1" d="M69.8,46.21c-.29-.26-.63-.36-1.03-.33-.32,.02-.5,.23-.68,.44-.04,.05-.05,.12-.05,.19-.01,.49,0,.97,.14,1.44,.03,.1,.07,.18,.14,.23,.3,.21,.62,.3,.99,.25,.28-.04,.47-.22,.66-.41,.14-.14,.2-.31,.2-.54,0-.03-.01-.09-.02-.15-.05-.31-.18-.6-.22-.92-.01-.08-.07-.16-.13-.21Z"/><path class="cls-1" d="M76.57,44.51c-.06,.06-.07,.15-.09,.23-.03,.11,0,.2,.08,.28,.11,.1,.24,.19,.4,.21,.13,.01,.27,.05,.4,.06,.47,.05,.86-.11,1.16-.48,.07-.08,.11-.17,.1-.31-.02-.18-.08-.37-.28-.48-.16-.09-.33-.15-.5-.17-.17-.02-.34-.04-.5,.02-.34,.12-.54,.39-.77,.64Z"/><path class="cls-1" d="M68.52,57.91c-.28-.1-.52-.32-.86-.23-.18,.05-.3-.06-.38-.23-.09-.19-.17-.39-.29-.57-.04-.05-.06-.13-.06-.19-.02-.25-.08-.49-.05-.74,0-.1-.01-.2-.04-.3-.11-.46-.21-.91-.3-1.37-.07-.32-.03-.39,.26-.52,.19-.08,.36-.19,.54-.29,.33-.2,.6-.48,.8-.81,.12-.2,.12-.41,0-.61-.12-.21-.31-.34-.55-.38-.41-.06-.79-.05-1.13,.24-.14,.12-.24,.08-.27-.1-.08-.55-.26-1.07-.34-1.62-.04-.28-.05-.58-.18-.84-.05-.12-.14-.21-.19-.33-.13-.33-.54-.55-.89-.49-.4,.07-.7,.35-.8,.75-.04,.18-.05,.35-.03,.46,.02,.45,.01,.82,.07,1.19,.08,.54,.2,1.06,.28,1.6,.05,.32,.1,.64,.15,.95,.06,.38,.13,.77,.19,1.15,.05,.32,.17,.62,.23,.94,.15,.81,.34,1.61,.7,2.36,.24,.51,.62,.85,1.19,.93,.17,.03,.33,.06,.5,.1,.47,.11,.89,0,1.28-.27,.23-.16,.28-.39,.28-.65,0-.07-.03-.12-.09-.14Z"/><path class="cls-1" d="M96.48,40.76c-.18-.69-.3-1.39-.42-2.1-.05-.28-.17-.5-.42-.63-.06-.03-.13-.05-.18-.1-.2-.16-.42-.15-.62-.03-.37,.22-.72,.47-.7,.97,0,.17-.04,.19-.22,.16-.39-.07-.77-.13-1.14,.1-.09,.06-.15,0-.18-.07-.02-.04-.02-.08-.02-.12-.1-.62-.2-1.24-.31-1.86-.06-.33-.09-.66-.25-.96-.12-.21-.27-.41-.39-.63-.07-.13-.2-.23-.32-.33-.11-.08-.24-.17-.38-.13-.27,.07-.53,.18-.67,.46-.1,.22-.12,.44-.05,.67,.11,.36,.2,.72,.26,1.09,.1,.59,.21,1.19,.3,1.78,.08,.55,.2,1.1,.24,1.66,0,.14-.03,.28,0,.43,.08,.36,.12,.74,.18,1.1,.07,.45,.19,.9,.19,1.36,0,.19,.03,.39,.06,.58,.1,.53,.22,1.05,.27,1.58,.01,.14,.07,.26,.11,.39,.07,.24,.24,.39,.48,.46,.16,.04,.34,.08,.5,.06,.33-.04,.61-.18,.73-.54,.13-.38,.09-.75,.05-1.13-.04-.46-.19-.9-.22-1.36-.02-.31-.05-.61-.1-.91-.09-.54-.14-1.08-.25-1.61-.03-.12-.02-.24,.06-.34,.21-.25,.4-.53,.69-.71,.11-.07,.21-.14,.31-.23,.11-.1,.18-.08,.22,.06,.04,.16,.07,.32,.09,.48,.06,.42,.1,.84,.19,1.26,.14,.62,.24,1.24,.21,1.87,0,.21,0,.43,0,.64,0,.15,.03,.29,.15,.39,.47,.43,1.22,.34,1.57-.19,.2-.31,.32-.65,.32-1.03,0-.41,0-.82-.09-1.22-.09-.45-.15-.91-.26-1.35Z"/><path class="cls-1" d="M94.15,37.11c.16-.03,.3,.03,.45,.05,.22,.02,.42-.01,.61-.12,.4-.23,.51-.59,.5-1.01,0-.14-.06-.24-.16-.33-.21-.2-.46-.25-.69-.23-.08,0-.12-.01-.17-.01-.36,0-.66,.14-.83,.45-.19,.35-.18,.72,.05,1.06,.05,.08,.12,.16,.23,.14Z"/><path class="cls-1" d="M101.06,36.79c-.1-.08-.2-.15-.3-.23-.13-.11-.27-.11-.43-.06-.36,.11-.7,.26-.99,.51-.18,.15-.25,.11-.29-.12,0-.02,0-.03,0-.05-.03-.39-.09-.78-.05-1.17,.03-.3,.06-.62,.03-.92-.06-.56-.04-1.12,.02-1.68,.06-.5,.1-1.03,.57-1.36,.08-.06,.1-.16,.07-.26-.07-.23-.21-.41-.41-.54-.09-.05-.2-.1-.29-.06-.16,.07-.35,.08-.51,.16-.48,.24-.76,.65-.8,1.17-.05,.62-.15,1.23-.18,1.85-.02,.51-.07,1.02-.05,1.53,.02,.43,.04,.86,.04,1.3,0,.43,0,.85,.03,1.28,.03,.38,.08,.76,.07,1.15-.02,.66,.05,1.31,.16,1.96,.1,.6,.17,1.21,.21,1.82,.03,.45,.1,.9,.25,1.32,.15,.44,.28,.89,.35,1.36,.03,.2,.1,.4,.16,.59,.14,.42,.75,.87,1.39,.56,.25-.12,.37-.38,.32-.66-.02-.11-.05-.22-.11-.31-.09-.16-.14-.33-.17-.51-.06-.36-.14-.72-.25-1.06-.15-.46-.27-.93-.3-1.42-.05-.71-.14-1.42-.25-2.13-.08-.49-.11-.98-.12-1.48,0-.13,.05-.21,.15-.27,.06-.03,.12-.06,.19-.08,.49-.2,.84-.57,1.18-.95,.14-.16,.22-.36,.33-.54,.07-.12,.1-.25,.11-.42,.01-.09-.03-.19-.13-.26Z"/><path class="cls-1" d="M70.93,51.81c-.06-.43,0-.87-.12-1.29-.06-.22-.14-.44-.17-.67-.01-.08-.06-.16-.11-.23-.51-.67-1.28-.61-1.86-.13-.04,.03-.07,.08-.09,.12-.13,.27-.27,.53-.33,.82-.02,.07-.04,.14-.02,.22,.07,.34,.13,.68,.19,1.02,.06,.34,.1,.69,.29,.99,.07,.11,.11,.25,.11,.39,0,.2,.05,.39,.08,.58,.12,.69,.28,1.38,.35,2.08,.05,.45,.17,.9,.41,1.3,.21,.34,.62,.37,.87,.07,.2-.24,.41-.48,.34-.84,0-.03,0-.07,.01-.1,.07-.57,.07-1.14,.07-1.71,0-.35-.01-.7,0-1.16-.01-.42,.06-.95-.01-1.49Z"/><path class="cls-1" d="M63.48,51.37c-.45-.11-.87-.03-1.21,.28-.29,.26-.53,.57-.75,.9-.15,.23-.18,.23-.39,.07-.16-.13-.33-.25-.5-.35-.27-.17-.59-.1-.81,.13-.22,.23-.26,.51-.21,.81,.04,.32,.09,.64,.18,.95,.16,.59,.37,1.17,.46,1.77,.05,.35,.14,.7,.25,1.04,.07,.22,.16,.43,.18,.66,.06,.52,.19,1.03,.32,1.54,.08,.33,.41,.59,.71,.58,.03,0,.07,0,.1,0,.56-.03,.79-.27,.76-.82-.02-.36-.07-.73-.12-1.09-.09-.57-.25-1.13-.37-1.69-.05-.22-.05-.44-.12-.65-.09-.28-.08-.57-.04-.86,.07-.48,.34-.86,.67-1.17,.33-.31,.59-.68,.88-1.02,.15-.18,.23-.4,.27-.62,.04-.25-.03-.38-.27-.44Z"/><path class="cls-1" d="M80.09,51.41c-.11-.34-.19-.69-.29-1.03-.19-.63-.31-1.27-.57-1.88-.05-.11-.08-.22-.09-.34-.06-.45-.14-.91-.2-1.36-.04-.29-.19-.55-.47-.66-.34-.14-.7-.22-1.06-.03-.2,.1-.33,.26-.47,.43-.17,.21-.27,.43-.17,.71,.02,.05,.02,.12,.02,.18,.08,.66,.17,1.31,.3,1.96,.09,.42,.27,.82,.34,1.25,.04,.25,.08,.5,.15,.75,.03,.1,.12,.21,.02,.31-.1,.09-.23,.01-.34,0,0,0-.02,0-.02,0-.34-.17-.59-.03-.81,.22-.17,.19-.32,.39-.46,.61-.27,.41-.64,.72-1.07,.97-.13,.08-.28,.12-.44,.12-.29,0-.43-.09-.49-.38-.05-.27-.06-.54,.02-.8,.07-.24,.11-.48,.11-.73,0-.38,.1-.74,.27-1.08,.07-.13,.09-.27,.11-.42,.03-.23,.09-.45,.2-.66,.19-.34,.38-.68,.44-1.08,.02-.15,.11-.2,.28-.19,.1,0,.18-.02,.27-.05,.09-.03,.17-.06,.27-.08,.49-.07,.71-.54,.47-.97-.03-.06-.07-.12-.11-.17-.29-.46-.9-.7-1.42-.54-.19,.06-.37,.12-.56,.17-.23,.06-.45,.15-.64,.31-.07,.06-.15,.12-.23,.16-.78,.35-1.2,1-1.52,1.75-.17,.4-.22,.84-.33,1.26-.12,.44-.22,.89-.21,1.3-.02,.31,.01,.55,.06,.79,.13,.62,.38,1.2,.63,1.77,.11,.25,.28,.49,.48,.69,.14,.14,.32,.22,.48,.33,.36,.26,.76,.4,1.21,.43,.15,.01,.31,0,.46-.02,.54-.06,1.06-.19,1.51-.51,.55-.39,1.02-.87,1.42-1.42,.12-.16,.22-.32,.33-.49,.04-.06,.12-.12,.16-.06,.13,.18,.34,.17,.51,.26,.22,.11,.48,.08,.71,.16,.03,0,.07-.01,.1-.02,.31-.03,.49-.24,.68-.46,.16-.18,.22-.39,.16-.62-.07-.28-.12-.56-.21-.84Z"/><path class="cls-1" d="M90.34,45.7c.04-.26,.03-.52,.04-.79,0-.12,.02-.24,.04-.35,.04-.19,.1-.38,.07-.53,0-.48-.09-.89-.24-1.29-.08-.22-.17-.44-.18-.69,0-.08-.04-.15-.09-.21-.11-.15-.21-.31-.33-.46-.51-.64-1.16-.83-1.96-.65-.4,.09-.77,.25-1.15,.4-.56,.21-.96,.59-1.25,1.11-.24,.44-.01,.88,.49,.93,.36,.03,.72,.02,1-.26,.04-.04,.1-.07,.14-.11,.14-.1,.3-.16,.46-.22,.08-.03,.15-.03,.2,.05,.05,.07,0,.14-.05,.18-.12,.11-.24,.22-.37,.31-.12,.09-.24,.2-.3,.34-.17,.36-.37,.7-.48,1.09-.19,.7-.23,1.38-.08,2.08,.06,.26,.15,.51,.37,.68,.53,.43,1.12,.58,1.79,.48,.12-.02,.23,0,.31,.07,.25,.24,.57,.29,.89,.33,.6,.06,.99-.29,1.02-.89,.01-.23-.03-.44-.13-.64-.14-.3-.28-.62-.23-.96Zm-2.15,.65c-.13,.01-.14-.12-.16-.22-.04-.24-.04-.49-.09-.73-.04-.22,.04-.43,.08-.65,0-.04,.03-.09,.08-.08,.05,0,.07,.05,.07,.09,.01,.06,.02,.12,.02,.18,.03,.39,.01,.78,.09,1.12,0,.14,.04,.27-.1,.28Z"/><path class="cls-1" d="M84.5,43.76c-.07-.05-.16-.07-.24-.08-.26-.03-.52-.03-.79,.02-.39,.07-.73,.28-1.13,.31-.04,0-.08,.03-.12,.05-.38,.27-.79,.5-1.11,.86-.09,.1-.19,.18-.33,.22-.22,.05-.36,.21-.4,.42-.05,.22-.09,.45-.04,.68,.21,.99,.41,1.98,.6,2.98,.12,.63,.32,1.25,.4,1.9,.05,.37,.09,.74,.18,1.1,.09,.39,.17,.78,.2,1.18,.02,.27,.07,.54,.15,.8,.12,.4,.3,.52,.64,.5,.13,0,.26-.03,.38-.07,.19-.07,.35-.2,.39-.4,.04-.17,.07-.35,.05-.53-.08-.61-.11-1.22-.28-1.81-.01-.05-.02-.1-.02-.15-.03-.35-.06-.7-.11-1.04-.02-.16-.02-.32,0-.48,.01-.11,.07-.16,.17-.18,.48-.09,.9-.29,1.3-.57,.26-.18,.47-.39,.6-.68,.15-.34,.31-.68,.43-1.04,.08-.24,.2-.47,.24-.72,.07-.4,.1-.81,.14-1.21,.03-.44-.09-.83-.33-1.18-.24-.37-.61-.61-.97-.85Zm-.97,3.98c-.03,.24-.11,.46-.2,.68-.02,.04-.04,.07-.07,.11-.06,.07-.14,.11-.23,.08-.09-.03-.15-.09-.16-.18-.03-.3-.07-.59-.07-.89,0-.55,.1-1.08,.4-1.56,.03-.04,.04-.09,.07-.13,.06-.08,.14-.07,.18,.02,.04,.09,.06,.18,.06,.27,0,.24,0,.48,0,.62,.02,.39,.04,.68,0,.98Z"/><path class="cls-1" d="M59.82,55.27c-.04-.38-.16-.74-.31-1.09-.23-.52-.58-.94-.98-1.32-.3-.28-.66-.41-1.08-.26-.06,.02-.13,.04-.2,.05-.54,.15-.81,.57-.93,1.06-.07,.31,0,.52,.4,.56,.13,.01,.27,.03,.4,0,.13-.04,.24,.02,.31,.13,.07,.11,.05,.23-.04,.33-.06,.06-.11,.13-.16,.19-.57,.69-.78,1.49-.7,2.38,.07,.71,.42,1.3,.79,1.88,.11,.18,.31,.3,.49,.39,.15,.08,.32,.14,.49,.09,.17-.05,.31-.01,.45,.09,.29,.2,.76,.18,1.03-.03,.03-.02,.06-.04,.07-.07,.12-.22,.27-.42,.25-.7-.02-.51-.06-1.01,0-1.67,.04-.23-.06-.6-.1-.97-.04-.36-.18-.69-.22-1.05Zm-1.5,2.95s-.08-.01-.1-.06c-.13-.3-.27-.59-.35-.9-.05-.21,.1-.37,.16-.55,.02-.05,.09-.04,.12,.02,.02,.05,.02,.12,.03,.17,.06,.38,.12,.75,.19,1.13,0,.03,0,.05,.01,.07,0,.06,0,.11-.07,.12Z"/><path class="cls-1" d="M55.97,56.62c-.02-.32-.03-.64-.04-.96,0-.08-.02-.15-.05-.22-.2-.39-.38-.8-.72-1.1-.07-.06-.12-.14-.17-.22-.05-.08-.11-.15-.18-.21-.5-.45-1.18-.3-1.66-.03-.03,.02-.05,.04-.07,.07-.14,.2-.31,.39-.38,.63-.09,.28-.26,.54-.24,.85,0,.04,0,.14-.1,.08v1.18c.11,.25,.1,.52,.1,.79,0,.73,.12,1.45,.22,2.17,.08,.59,.16,1.17,.25,1.76,.12,.78,.18,1.57,.35,2.34,.04,.17,.08,.35,.18,.5,.04,.06,.08,.13,.1,.21,.06,.25,.21,.42,.44,.52h.46s.03-.04,.05-.05c.34-.14,.48-.38,.42-.74-.02-.11-.05-.22-.05-.33,.03-.41-.08-.79-.16-1.18-.18-.84-.28-1.69-.27-2.55,0-.13,.05-.21,.15-.27,.06-.03,.12-.07,.18-.09,.25-.1,.41-.29,.54-.51,.11-.19,.16-.41,.26-.61,.18-.35,.16-.76,.36-1.1,.02-.03,.02-.07,.02-.1-.06-.27,.04-.54,.03-.81Zm-1.57,.33c-.01,.32-.02,.61-.1,.89-.02,.05-.02,.11-.08,.11-.09,0-.08-.07-.09-.12-.07-.36-.1-.73-.1-1.1,0-.21,.04-.42-.01-.63-.03-.11,.04-.22,.01-.33,0-.03,.02-.07,.05-.08,.04-.01,.08,0,.11,.05,.07,.11,.13,.22,.15,.35,.04,.29,.1,.59,.08,.85Z"/></g><g><path class="cls-1" d="M75.48,31.43c.52-.09,.67-.51,.48-.91-.11-.24-.31-.41-.57-.47-.19-.04-.38-.09-.57-.08-.22-.02-.41,.03-.6,.12-.25,.12-.35,.33-.31,.61,.05,.31,.25,.49,.52,.61,.12,.05,.25,.06,.37,.08,.23,.03,.46,.07,.68,.03Z"/><path class="cls-1" d="M80.62,31.9c.14,.62,.29,1.24,.37,1.87,.02,.18,.05,.35,.2,.48,.08,.07,.15,.17,.21,.26,.08,.11,.18,.18,.3,.22,.12,.04,.25,.05,.38,.06,.42,.03,.74-.26,.74-.71,0-.02,0-.06-.01-.1-.08-.56-.19-1.12-.32-1.68-.2-.88-.41-1.75-.48-2.65-.02-.32-.12-.6-.32-.84-.33-.41-.52-.41-.98-.26-.13,.04-.26,.1-.32,.24-.08,.18-.16,.37-.14,.59,.07,.85,.18,1.69,.37,2.52Z"/><path class="cls-1" d="M80.77,27.78c.38,.04,.71-.37,.57-.72-.1-.26-.41-.43-.7-.38-.13,.02-.26,.09-.38,.13-.19,.07-.26,.2-.25,.37,0,.32,.2,.54,.49,.56,.09,0,.18,.03,.28,.04Z"/><path class="cls-1" d="M66.77,35.09c.07,.48,.19,.95,.3,1.42,.17,.71,.27,1.44,.47,2.14,.18,.65,.35,1.3,.61,1.92,.06,.13,.14,.22,.26,.3,.25,.17,.52,.13,.78,.06,.29-.08,.44-.34,.37-.63-.1-.46-.2-.91-.32-1.36-.21-.74-.34-1.49-.33-2.26,0-.34,0-.68,.24-.96,.11-.12,.21-.24,.35-.33,.15-.09,.26-.21,.37-.35,.18-.23,.3-.5,.4-.77,.07-.18,.04-.38-.11-.52-.14-.15-.3-.27-.54-.22-.39,.09-.71,.26-.93,.61-.07,.11-.17,.21-.27,.31-.1,.1-.16,.09-.25-.02-.04-.04-.07-.1-.11-.14-.17-.23-.4-.34-.69-.31-.26-.03-.48,.06-.58,.31-.09,.23-.21,.47-.05,.73,.01,.02,.01,.05,.02,.07Z"/><path class="cls-1" d="M76.85,35.75c-.14-.47-.21-.96-.33-1.44-.14-.58-.19-1.19-.55-1.71,0-.01-.01-.03-.02-.05-.16-.27-.38-.45-.74-.42-.48-.04-.74,.37-.7,.75,.06,.5,.12,1.01,.24,1.51,.15,.64,.31,1.27,.35,1.93,.02,.37,.14,.66,.41,.92,.34,.33,.77,.44,1.2,.24,.04-.02,.08-.03,.12-.04,.25-.1,.37-.32,.28-.57-.12-.36-.16-.74-.27-1.11Z"/><path class="cls-1" d="M96.64,21.86c-.37-.1-.75-.15-1.12,.04-.2,.1-.24,.08-.28-.15-.08-.51-.16-1.02-.25-1.53-.1-.59-.15-1.21-.58-1.69-.01-.01-.02-.03-.02-.04-.08-.22-.25-.37-.42-.5-.12-.1-.27-.17-.43-.12-.3,.09-.56,.23-.67,.57-.06,.19-.05,.37,0,.55,.09,.32,.18,.64,.23,.97,.13,.78,.25,1.56,.39,2.34,.09,.49,.16,.99,.22,1.48,.06,.52,.08,1.05,.19,1.57,.06,.29,.12,.58,.13,.88,.01,.43,.05,.86,.17,1.29,.08,.28,.11,.57,.14,.85,.02,.2,.07,.4,.13,.6,.08,.26,.26,.42,.51,.49,.16,.05,.34,.07,.5,.05,.33-.05,.59-.19,.71-.54,.07-.21,.1-.41,.08-.58,0-.24-.02-.43-.04-.63-.03-.31-.14-.6-.16-.9-.09-.97-.22-1.93-.39-2.88-.03-.16,0-.3,.11-.43,.22-.28,.46-.55,.77-.74,.13-.08,.24-.19,.3-.34,.11-.26,.02-.52-.22-.59Z"/><path class="cls-1" d="M79.22,34.01c-.03,.17,0,.22,.18,.22,.22,0,.77,.1,.9,.26,.1,.13,.11,.26,.03,.4-.21,.34-.48,.6-.91,.61-.28,0-.52,.15-.79,.18-.19,.03-.31-.01-.42-.16-.05-.07-.1-.14-.15-.2-.11-.12-.15-.26-.14-.42,0-.18,0-.36,0-.54,0-.53,.05-1.05,.02-1.58-.02-.35,.03-.71,.02-1.07,0-.26-.04-.28-.31-.26-.21,.02-.42,.02-.64,.02-.25,0-.47-.25-.48-.5-.01-.23,.05-.43,.21-.6,.42-.43,.81-.9,1.34-1.22,.2-.13,.41-.26,.63-.33,.41-.14,.81-.06,1.16,.19,.15,.11,.21,.28,.2,.47-.03,.42-.2,.48-.39,1.31,0,0-.15,.76-.31,1.73-.04,.26-.16,1.49-.16,1.49Z"/><path class="cls-1" d="M97.9,25.99c.04,.33,.09,.64,.36,.87,.03,.03,.05,.07,.07,.1,.17,.22,.67,.38,.92,.3,.31-.1,.5-.36,.49-.73,0-.04,0-.12-.02-.19-.08-.49-.17-.97-.28-1.45-.2-.89-.42-1.78-.49-2.7-.02-.33-.1-.63-.32-.9-.3-.38-.52-.44-1-.26-.12,.04-.24,.1-.3,.22-.1,.21-.18,.42-.15,.66,.04,.26,.06,.52,.09,.78,.06,.58,.17,1.16,.3,1.73,.11,.52,.25,1.04,.32,1.57Z"/><path class="cls-1" d="M97.75,20.23c.23,0,.39-.11,.51-.29,.11-.16,.1-.35,0-.51-.13-.19-.3-.31-.55-.3-.22,0-.41,.1-.6,.2-.05,.03-.09,.08-.11,.13-.13,.32,.08,.7,.43,.75,.11,.01,.22,.02,.33,.02Z"/><path class="cls-1" d="M72.35,39.09c.64,.23,1.32,.13,1.42,.11,.26-.06,.41-.25,.48-.48,.06-.21-.06-.39-.23-.53-.11-.09-.22-.14-.36-.18-.31-.08-.49-.26-.5-.5-.02-.37-.09-.74-.13-1.11-.05-.5-.15-.99-.18-1.49-.01-.23,.06-.41,.26-.55,.26-.17,.52-.36,.78-.53,.17-.11,.28-.27,.36-.45,.08-.18,.07-.33-.06-.47-.14-.16-.27-.33-.53-.29-.3,.04-.57,.17-.82,.32-.16,.1-.23,.08-.26-.09-.07-.35-.17-.69-.29-1.03-.11-.33-.23-.65-.41-.96-.18-.32-.41-.48-.81-.42-.51,.07-.65,.32-.68,.82-.01,.22,.04,.44,.1,.65,.13,.56,.24,1.13,.35,1.7,.07,.37,.09,.76,.18,1.13,.07,.29,.15,.57,.19,.87,.05,.32,.09,.64,.16,.95,.14,.61,.27,1.23,.46,1.83,.1,.31,.25,.62,.54,.72Z"/><path class="cls-1" d="M104.21,17.59c-.04-.05-.09-.11-.16-.13-.31-.08-.62-.14-.91,.04-.34,.21-.7,.41-.68,.9,0,.05-.02,.1-.02,.15-.06,.43-.13,.86-.17,1.29-.06,.69-.12,1.37-.13,2.06,0,.07,.03,.17-.07,.2-.1,.03-.11-.08-.14-.14-.01-.02-.02-.05-.03-.07-.22-.47-.39-.96-.59-1.44-.12-.29-.29-.56-.57-.69-.47-.22-.94-.19-1.34,.19-.3,.28-.34,.67-.08,.99,.09,.11,.17,.23,.22,.37,.13,.36,.28,.71,.44,1.06,.2,.43,.42,.86,.58,1.3,.29,.79,.59,1.57,1.11,2.25,.28,.37,.64,.51,1.08,.52,.19,0,.34-.11,.5-.18,.2-.09,.32-.25,.35-.47,.07-.5,.14-.99,.21-1.49,.04-.3,.06-.61,.12-.91,.06-.34,.12-.69,.12-1.04,0-.72,.05-1.44,.21-2.15,.09-.4,.1-.83,.16-1.24,.02-.14,0-.3,.1-.43v-.56c-.1-.13-.19-.25-.29-.38Z"/><path class="cls-1" d="M63.82,36.57c.13-.02,.25,0,.38,.03,.13,.02,.16,.1,.08,.22-.12,.18-.25,.34-.38,.51-.41,.51-.53,1.09-.41,1.72,.07,.39,.34,.68,.56,.99,.31,.43,.87,.58,1.37,.42,.16-.05,.29-.07,.46,0,.23,.09,.49,.09,.71-.05,.31-.2,.39-.48,.31-.85-.03-.11-.07-.21-.11-.31-.04-.08-.07-.15-.05-.24,.07-.4,.15-.8,.09-1.21-.02-.16,.06-.32,.06-.48-.01-.45-.12-.88-.33-1.27-.17-.34-.42-.63-.76-.8-.39-.2-.83-.23-1.26-.2-.49,.04-.89,.26-1.16,.69-.14,.22-.09,.44,0,.65,.08,.2,.26,.22,.45,.19Zm1.12,2.04s.03-.06,.07-.07c.05-.01,.09,.02,.09,.06,.04,.22,.08,.43,.11,.65,0,.04-.02,.08-.07,.1-.06,.03-.1,0-.13-.04-.1-.11-.12-.26-.13-.38l.06-.32Z"/><path class="cls-1" d="M83.45,27.93c-.21,.05-.34,.2-.39,.4-.05,.22-.1,.44-.05,.68,.16,.77,.3,1.54,.46,2.3,.16,.77,.33,1.55,.51,2.32,.06,.28,.03,.56,.1,.83,.15,.65,.29,1.29,.35,1.96,.02,.19,.06,.39,.12,.57,.07,.21,.16,.43,.42,.47,.48,.08,1.06-.07,1.05-.81,0-.03,0-.07,0-.1-.02-.36-.04-.71-.09-1.07-.05-.32-.1-.64-.12-.96-.01-.3-.06-.59-.14-.88-.06-.21-.09-.42-.08-.63,0-.11,.05-.18,.16-.2,.49-.08,.92-.29,1.32-.57,.26-.18,.47-.39,.6-.68,.15-.33,.3-.67,.42-1.01,.08-.25,.21-.49,.25-.75,.06-.41,.12-.82,.14-1.24,.02-.58-.17-1.07-.59-1.46-.12-.11-.26-.2-.37-.31-.26-.24-.55-.36-.91-.33-.33,.01-.66,.03-.98,.12-.72,.21-1.31,.63-1.83,1.16-.09,.09-.19,.17-.32,.2Zm1.92,2.45c.1-.12,.14-.27,.13-.43,0-.48,.21-.88,.43-1.29,.02-.05,.06-.09,.12-.08,.07,0,.09,.06,.11,.12,.04,.15,.05,.3,.05,.45,0,.15,0,.31,0,.46,0,.29,.03,.57,0,.87-.03,.24-.1,.46-.18,.69-.07,.18-.43,.36-.62,.31-.08-.02-.12-.08-.15-.16-.1-.33-.14-.65,.11-.94Z"/><path class="cls-1" d="M88.36,25.94c.38,.06,.77,.07,1.08-.23,.05-.05,.11-.08,.16-.12,.13-.09,.28-.15,.44-.21,.09-.03,.18-.05,.22,.05,.04,.08-.03,.14-.08,.19-.1,.09-.2,.18-.31,.26-.17,.12-.29,.28-.39,.46-.19,.34-.36,.69-.45,1.08-.05,.22-.11,.43-.13,.65-.02,.21-.1,.42-.05,.63,.05,.2,.06,.4,.09,.6,.09,.7,.53,1.02,1.2,1.23,.31,.09,.65,.12,.99,.05,.09-.02,.2-.02,.27,.05,.24,.23,.54,.29,.86,.35,.59,.1,1.05-.26,1.09-.85,.02-.25-.03-.47-.13-.69-.14-.3-.27-.62-.22-.96,.04-.26,.03-.52,.04-.79,0-.11,.02-.22,.04-.33,.04-.2,.1-.4,.07-.55,0-.47-.09-.88-.23-1.28-.08-.22-.18-.44-.18-.69,0-.08-.04-.15-.08-.21-.1-.15-.2-.3-.31-.44-.51-.66-1.17-.86-1.99-.68-.44,.1-.84,.28-1.25,.44-.54,.21-.91,.61-1.18,1.12-.19,.37,0,.8,.42,.86Zm2.31,1.61s.03-.09,.08-.08c.05,0,.07,.05,.08,.09,.02,.14,.04,.29,.04,.43,0,.27,.02,.54,.07,.81,.01,.07,.01,.14,.01,.2,0,.07-.02,.14-.1,.15-.08,0-.11-.06-.14-.12,0-.01,0-.03-.01-.05-.05-.29-.04-.59-.12-.86,.04-.21,.06-.39,.1-.57Z"/><path class="cls-1" d="M63.03,36.64c-.15-.32-.49-.39-.74-.59-.03-.03-.1-.02-.15-.02-.29,0-.55,.06-.81,.19-.61,.3-.89,.85-1.09,1.44-.11,.34-.15,.71-.13,.91,.03,.78,.08,1.38,.16,1.98,.07,.53,.15,1.05,.37,1.55,.11,.24,.24,.39,.48,.48,.12,.05,.21,.03,.3-.06,.29-.32,.42-.67,.28-1.1-.04-.12-.08-.24-.08-.37-.01-.34,0-.68-.05-1.02-.02-.14,.02-.27,.14-.36,.15-.13,.26-.29,.37-.45,.27-.41,.49-.86,.85-1.21,.24-.23,.28-.53,.33-.83,.03-.22-.13-.36-.21-.53Zm-1.25,.43c.08,.29,.17,.57,.19,.84,.03,.32,.06,.61,.01,.9,0,.05,0,.11-.07,.12-.09,.02-.09-.06-.11-.11-.11-.35-.2-.71-.24-1.08-.03-.2,0-.42-.09-.62-.05-.11,.01-.22-.03-.33-.01-.03,0-.07,.04-.08,.04-.02,.08,0,.11,.04,.08,.1,.16,.21,.19,.33Z"/></g><g><path class="cls-1" d="M20.51,25.78c-.49-4.93-2.8-11.79-4.68-13.23,.1,.84,.11,1.45,.25,2.02,.78,3.23,1.13,7.05,1.92,10.28,.24,.98,.38,1.99,.68,2.95,.54,1.76,1.94,1.52,3.54,.66,1.47-.79,2.94-1.56,4.38-2.39,.51-.3,.95-.73,1.82-1.41-3.19-.88-5.32,1.91-7.91,1.12Z"/><path class="cls-1" d="M29.66,18.57c1.02-.3,1.78-.71,2.39-1.29,.08-.07,.17-.13,.27-.19h0l1.28,1.14,.26-.3c.07-.08,.13-.15,.18-.21,.57-.57,.69-1.22,.35-1.93-.07-.15-.14-.3-.21-.46-.11-.25-.23-.5-.35-.74-.09-.18-.19-.35-.29-.52-.16-.28-.32-.54-.43-.82-.71-1.81-3.34-3.45-5.66-2.84-1.75,.46-3.19,1.46-4.5,2.49-.18,.14-.27,.29-.26,.46,0,.18,.11,.35,.33,.52,.47,.35,1.12,.51,1.74,.39,.57-.1,1.05-.4,1.36-.85,.63-.92,2-1.24,2.93-.69,.65,.39,1.18,.96,1.6,1.75-1.88,.95-2.76,1.69-3.56,3l-.06,.09,.05,.09c.49,.85,1.52,1.2,2.57,.89Zm1.35-2.62c-.15,.95-.88,1.41-2.21,1.38,.43-.82,1.27-1.34,2.21-1.38Z"/><path class="cls-1" d="M69.03,25.3c-.35-2.57-2.22-.92-4.37-.89s-2.53-1.28-2.53-1.28c0,0,.99-2.39,2.18-2.83,1.87-.71,4-2.67,2.69-4.05-1.32-1.38-3.61,.1-4,2.2-.38,2.03-3.03,2.64-4.02,2.51s-.87-2.11-.46-3.63c.41-1.52,2.77-4.55,.15-5.13-2.32-.51-2.69,1.85-2.19,4.01,.5,2.15-.62,4.55-.62,4.55,0,0-1.98-1-2.65-2.37-1.79-3.65-5.16-2.44-4.94,.37s2.14,1.46,4.92,3.72c2.2,1.78,2.59,6.54,2.66,8.49,0,0-.31,5.94-2.7,11.91,.04-.9,0-1.81-.13-2.73-.43-4.36-3.26-10.36-5.37-14.68-.63-1.42-1.56-2.37-2.99-2.96-1.34-.56-2.52-1.27-3.21-2.75-.64-1.37-1.7-1.53-2.81-.45-.85,.82-1.54,1.92-1.99,3.02-1.24,3.02-2.84,5.79-5.62,7.58-4.73,3.04-9.8,4.71-15.49,3.15-1.02-.28-2.07-.58-3.16,.15,.57,.82,.98,1.58,1.56,2.2,.47,.5,1.09,1.02,1.73,1.2,2.71,.73,5.44,.9,8.15-.07,.96-.34,1.95-.6,2.93-.85,6.28-1.62,10.57-5.44,12.93-11.75,1.13,.8,2.12,1.69,3.27,2.25,1.22,.59,1.92,1.45,2.33,2.67,.81,2.4,1.65,4.79,2.49,7.18,1.05,2.98,1.33,5.94,.77,9.14-.62,3.51-1.41,6.92-2.68,10.24-.87,2.27-1.98,4.38-3.66,6.13-3.56,3.69-7.79,5.18-12.87,3.79-4.95-1.36-8.79-4.45-12.2-8.08-4.56-4.84-7.51-10.67-9.71-16.89-2.13-6.03-2.61-12.25-1.3-18.47,1.43-6.78,4.9-12.28,11.44-15.27,5-2.28,9.83-1.58,14.35,1.44,.88,.59,1.6,.61,2.32-.1,.69-.67,.61-1.42,.16-2.18-.07-.12-.18-.22-.27-.34C31.53,2.21,27.83,1.1,24.12,.03c-.2-.06-.43-.01-.65,0-5.09,.3-9.75,1.9-13.6,5.21C4.48,9.87,1.23,15.8,.35,22.87c-.94,7.57-.02,14.86,3.19,21.92,4.6,10.14,11.64,17.76,21.8,22.47,10.37,4.8,21.39-1.37,24.54-10.83,0,0,7.57-14.3,7.85-22.59,.19-7.14,4.41-8.79,6.65-7.47,2.24,1.32,5.01,1.52,4.66-1.05Z"/></g></g></g></svg>