<svg xmlns="http://www.w3.org/2000/svg" width="23.959" height="164.446" viewBox="0 0 23.959 164.446">
  <g id="Group_249" data-name="Group 249" transform="translate(-26.379 -464.167)">
    <path id="Path_207" data-name="Path 207" d="M38.359,616.633l11.98,11.98V464.167H26.379V628.612Z" fill="#DDDE41"/>
    <g id="Group_248" data-name="Group 248">
      <g id="Group_247" data-name="Group 247">
        <g id="Group_246" data-name="Group 246">
          <path id="Path_208" data-name="Path 208" d="M34.471,471.04h4.447c2.791,0,4.339,1.494,4.339,3.835,0,2.358-1.6,3.853-4.357,3.853H35.731v4.915h-1.26Zm4.357,6.589c2.017,0,3.133-1.062,3.133-2.736,0-1.657-1.116-2.755-3.133-2.755h-3.1v5.491Z" fill="#fff"/>
          <path id="Path_209" data-name="Path 209" d="M35.3,496.259v5.384H34.057v-12.6h5.131c2.719,0,4.052,1.53,4.052,3.583a3.335,3.335,0,0,1-2.971,3.492v.018c.144.252.234.4.432.757l2.809,4.753H42.051l-2.988-5.131c-.127-.217-.163-.253-.451-.253Zm0-1.08h3.8c1.927,0,2.881-1.044,2.881-2.521,0-1.494-.972-2.52-2.9-2.52H35.3Z" fill="#fff"/>
          <path id="Path_210" data-name="Path 210" d="M43,519.643H34.408v-12.6h8.463v1.1H35.65v4.447H42.4v1.1H35.65v4.862H43Z" fill="#fff"/>
          <path id="Path_211" data-name="Path 211" d="M33.058,525.94v11.7H31.852v-12.6H33.94l4.466,11.252,4.447-11.252h2.035v12.6H43.663v-11.7l-4.645,11.7h-1.3Z" fill="#fff"/>
          <path id="Path_212" data-name="Path 212" d="M37.729,543.04H38.99v12.6H37.729Z" fill="#fff"/>
          <path id="Path_213" data-name="Path 213" d="M43,573.644H34.408v-12.6h8.463v1.1H35.65v4.447H42.4v1.1H35.65v4.861H43Z" fill="#fff"/>
          <path id="Path_214" data-name="Path 214" d="M35.3,586.26v5.384H34.057v-12.6h5.131c2.719,0,4.052,1.53,4.052,3.583a3.336,3.336,0,0,1-2.971,3.493v.018c.144.252.234.4.432.756l2.809,4.754H42.051l-2.988-5.132c-.127-.216-.163-.252-.451-.252Zm0-1.08h3.8c1.927,0,2.881-1.044,2.881-2.521,0-1.495-.972-2.521-2.9-2.521H35.3Z" fill="#fff"/>
          <path id="Path_215" data-name="Path 215" d="M43,609.644H34.408v-12.6h8.463v1.1H35.65v4.447H42.4v1.1H35.65v4.861H43Z" fill="#fff"/>
        </g>
      </g>
    </g>
  </g>
</svg>
