<svg xmlns="http://www.w3.org/2000/svg" width="38.998" height="38.229" viewBox="0 0 38.998 38.229">
  <g id="Group_160" data-name="Group 160" transform="translate(-644.232 -105.29)">
    <path id="Path_163" data-name="Path 163" d="M663.88,135.323a14.508,14.508,0,0,1-9.64-3.4l3.256-3.864a9.143,9.143,0,0,0,6.471,2.731c2.185,0,3.943-.587,3.943-2.015,0-1.134-.815-1.68-3.645-2.143l-2.011-.335c-4.373-.716-6.942-2.52-6.942-6.09,0-4.663,4.626-7.058,8.912-7.058a13.588,13.588,0,0,1,8.527,2.731l-3,3.992a8.489,8.489,0,0,0-5.614-2.226c-1.969,0-3.682.629-3.682,2.015,0,1.092.815,1.469,3.682,1.932l2.056.335c4.456.716,7.029,2.859,7.029,6.384,0,4.832-4.543,7.017-9.342,7.017m-.149-30.033a19.118,19.118,0,1,0,19.5,19.114,19.311,19.311,0,0,0-19.5-19.114" transform="translate(0 0)" fill="#fff"/>
  </g>
</svg>
