<svg xmlns="http://www.w3.org/2000/svg" width="63.02" height="28.718" viewBox="0 0 63.02 28.718">
  <g id="Group_169" data-name="Group 169" transform="translate(-714.752 87.023)">
    <path id="Path_166" data-name="Path 166" d="M777.255-66.687h-.233l.249-3.826q.031-.476.031-.953V-74.6a14.686,14.686,0,0,0-.268-2.793l-1.573-8.122a1.887,1.887,0,0,0-1.869-1.5H733.339a3.661,3.661,0,0,0-2.519,1l-10.227,9.71a.719.719,0,0,1-.477.178.739.739,0,0,0-.468.192l-3.33,3.057a2.288,2.288,0,0,0-.733,1.979l.452,3.522h-.77a.5.5,0,0,0-.484.671l.454,1.21a1.587,1.587,0,0,0,1.492,1.012h3.62a.8.8,0,0,0,.76-.536l.214-.544a5.221,5.221,0,0,1,4.88-3.259h0a5.2,5.2,0,0,1,5.065,3.826l.117.451a.944.944,0,0,0,.929.725h28.2a.936.936,0,0,0,.908-.675l.037-.176a5.316,5.316,0,0,1,5.245-4.152h0a5.328,5.328,0,0,1,5.18,3.878l.152.564a1.078,1.078,0,0,0,1.022.708h3.273a1.073,1.073,0,0,0,1.052-.812l.376-1.579A.5.5,0,0,0,777.255-66.687ZM740.766-77.561a1.194,1.194,0,0,1-1.212,1.151h-11.66a1.2,1.2,0,0,1-1.182-.918l-.268-1.16a1.152,1.152,0,0,1,.339-1.1l5.2-4.888a1.231,1.231,0,0,1,.844-.332h6.856a1.193,1.193,0,0,1,1.212,1.2ZM773.04-76.41H743.573a1.036,1.036,0,0,1-1.052-1.02v-6.358a1.036,1.036,0,0,1,1.052-1.02h29.2a1.038,1.038,0,0,1,1.051.979l.263,6.358A1.034,1.034,0,0,1,773.04-76.41Z" transform="translate(0)" fill="#EA5060"/>
    <path id="Path_167" data-name="Path 167" d="M737.646-35.684a5.135,5.135,0,0,0-5.135,5.135,5.135,5.135,0,0,0,5.135,5.135,5.135,5.135,0,0,0,5.135-5.135A5.135,5.135,0,0,0,737.646-35.684Zm0,7.544a2.409,2.409,0,0,1-2.409-2.409,2.408,2.408,0,0,1,2.409-2.409,2.409,2.409,0,0,1,2.409,2.409A2.409,2.409,0,0,1,737.646-28.14Z" transform="translate(-9.801 -32.891)" fill="#EA5060"/>
    <path id="Path_168" data-name="Path 168" d="M842.543-35.684a5.135,5.135,0,0,0-5.135,5.135,5.135,5.135,0,0,0,5.135,5.135,5.135,5.135,0,0,0,5.135-5.135A5.135,5.135,0,0,0,842.543-35.684Zm0,7.544a2.409,2.409,0,0,1-2.409-2.409,2.409,2.409,0,0,1,2.409-2.409,2.408,2.408,0,0,1,2.409,2.409A2.409,2.409,0,0,1,842.543-28.14Z" transform="translate(-77.693 -32.891)" fill="#EA5060"/>
  </g>
</svg>
