<?xml version="1.0" standalone="no"?>
<!DOCTYPE svg PUBLIC "-//W3C//DTD SVG 20010904//EN"
 "http://www.w3.org/TR/2001/REC-SVG-20010904/DTD/svg10.dtd">
<svg version="1.0" xmlns="http://www.w3.org/2000/svg"
 width="700.000000pt" height="700.000000pt" viewBox="0 0 700.000000 700.000000"
 preserveAspectRatio="xMidYMid meet">
<metadata>
Created by potrace 1.14, written by Peter Selinger 2001-2017
</metadata>
<g transform="translate(0.000000,700.000000) scale(0.100000,-0.100000)"
fill="#000000" stroke="none">
<path d="M3075 6948 c-188 -21 -385 -62 -541 -113 -221 -71 -479 -211 -657
-355 -10 -8 -28 -23 -40 -33 -12 -9 -69 -61 -127 -115 -345 -319 -605 -737
-744 -1195 -34 -113 -80 -320 -91 -412 -3 -27 -8 -66 -10 -85 -3 -19 -8 -62
-11 -95 -3 -33 -10 -91 -14 -130 -8 -74 -5 -585 4 -645 3 -19 10 -80 16 -135
7 -55 14 -109 16 -120 2 -11 7 -40 10 -65 3 -25 9 -61 14 -80 5 -19 12 -51 15
-70 14 -80 77 -315 120 -445 183 -549 536 -1164 915 -1590 164 -185 428 -431
611 -569 92 -68 287 -206 294 -206 2 0 39 -22 82 -48 301 -186 637 -332 848
-368 17 -2 37 -7 45 -9 68 -19 361 -26 491 -13 507 54 1010 367 1309 817 128
191 199 368 320 792 34 118 65 228 71 244 14 44 77 286 83 317 2 15 7 31 10
36 3 5 8 31 12 58 3 27 8 52 10 55 1 3 6 28 9 55 4 27 9 60 12 74 3 14 6 99 8
190 3 153 -6 253 -39 425 -43 221 -201 636 -413 1085 -140 294 -144 302 -218
376 -60 61 -89 81 -194 133 -184 90 -244 143 -317 280 -75 140 -184 139 -309
-3 -80 -91 -107 -133 -166 -266 -199 -444 -342 -624 -635 -803 -205 -125 -544
-269 -686 -291 -21 -3 -57 -10 -80 -15 -105 -23 -293 -32 -423 -20 -108 10
-140 16 -285 51 -147 36 -219 38 -284 9 l-47 -20 27 -43 c83 -134 172 -233
243 -271 48 -27 172 -60 266 -73 28 -3 59 -8 70 -10 44 -9 245 -5 324 6 47 6
141 30 210 52 69 22 158 48 196 58 194 52 234 64 352 108 351 132 646 373 856
698 50 77 140 253 176 346 l23 57 76 -58 c76 -58 247 -171 258 -171 11 0 91
-59 123 -91 45 -46 76 -102 107 -190 288 -821 320 -926 341 -1124 9 -86 8
-312 -1 -380 -12 -81 -16 -108 -21 -135 -3 -14 -7 -41 -10 -60 -4 -19 -15 -80
-26 -135 -11 -55 -23 -113 -26 -129 -14 -80 -119 -443 -173 -597 -110 -316
-231 -528 -409 -714 -193 -202 -410 -333 -657 -395 -69 -18 -124 -24 -240 -26
-84 -2 -167 1 -185 5 -19 5 -65 14 -104 21 -217 40 -500 165 -739 325 -265
178 -597 500 -827 801 -71 92 -190 264 -215 309 -6 11 -39 67 -74 125 -113
188 -287 554 -362 760 -11 30 -26 69 -33 85 -32 75 -141 415 -152 475 -2 14
-8 42 -14 62 -14 56 -47 236 -54 304 -4 32 -8 70 -10 83 -8 48 -18 246 -18
360 -1 179 9 291 48 577 13 90 63 287 110 431 123 372 335 699 597 920 84 71
222 173 235 173 3 0 14 7 23 15 9 8 75 44 146 79 170 84 322 135 454 151 30 4
64 9 75 11 29 6 245 5 278 -1 15 -3 55 -10 90 -15 157 -27 417 -131 553 -223
74 -49 136 -77 173 -77 81 0 166 85 164 165 -2 66 -37 120 -147 231 -164 165
-344 269 -636 367 -257 86 -298 93 -455 75z"/>
<path d="M3545 5899 c-106 -36 -204 -85 -295 -148 -96 -66 -140 -107 -140
-131 0 -47 85 -93 171 -92 70 0 109 20 174 87 70 73 105 89 190 90 70 0 101
-13 165 -67 16 -14 82 -95 93 -114 4 -7 -29 -32 -85 -65 -99 -58 -219 -168
-253 -231 l-19 -37 29 -32 c40 -42 107 -71 164 -70 82 0 220 60 300 130 l35
30 65 -58 66 -59 36 42 c87 100 85 123 -28 344 -48 96 -106 195 -128 222 -87
104 -241 179 -381 184 -60 3 -89 -2 -159 -25z m395 -555 c0 -36 -30 -73 -79
-98 -34 -18 -131 -34 -131 -21 0 33 82 99 150 121 49 17 60 16 60 -2z"/>
<path d="M2425 5679 c2 -13 6 -49 9 -80 3 -31 12 -89 21 -130 9 -41 18 -83 20
-94 2 -11 8 -46 14 -77 15 -81 30 -167 37 -208 6 -39 21 -130 29 -175 3 -16
12 -70 20 -120 8 -49 17 -101 20 -115 3 -14 7 -36 10 -50 2 -14 16 -77 31
-140 32 -143 33 -148 40 -187 10 -63 43 -164 64 -199 41 -65 116 -82 215 -49
28 9 102 44 165 78 283 149 411 225 490 289 88 73 85 77 -65 74 -104 -2 -108
-3 -367 -95 -98 -35 -176 -47 -242 -37 -40 6 -46 10 -46 32 0 59 -49 315 -91
474 -17 63 -32 122 -34 130 -2 8 -24 75 -50 149 -84 244 -190 454 -264 525
-30 29 -30 29 -26 5z"/>
</g>
</svg>
