<svg xmlns="http://www.w3.org/2000/svg" viewBox="0 0 598.96 898.53"><defs><style>.cls-1{fill:#fff;}</style></defs><title>Element_L1_W</title><g id="Layer_2" data-name="Layer 2"><g id="Layer_1-2" data-name="Layer 1"><path class="cls-1" d="M513.42,285.86c-96-91.52-224.73-138.07-345.58-192.66C110,67.08,51.71,37.1,0,0V898.53C24.34,875,58.51,861.35,92.19,866c40.28,5.52,79,32.87,118.33,22.52,41-10.77,61.52-60.13,55.07-102S233.05,708.83,208,674.71s-50.79-70.34-56.27-112.34,17-90.87,58.43-99.72c32.42-6.93,65,12.05,88.55,35.39s42.12,51.81,68.48,71.92c38.35,29.27,91.88,37.36,137.17,20.75s80.89-57.39,91.23-104.52C611.72,412.46,568,338,513.42,285.86Z"/></g></g></svg>