<svg xmlns="http://www.w3.org/2000/svg" viewBox="0 0 326.53 932.82"><defs><style>.cls-1{fill:#fff;}</style></defs><title>Element_R1_W</title><g id="Layer_2" data-name="Layer 2"><g id="Layer_1-2" data-name="Layer 1"><path class="cls-1" d="M225.49,135.18C178.67,153.9,125.61,150,77.68,165.66S-15.24,232.11,5,278.31c17.05,39,66.89,48,108.61,56.4s91.11,32.41,90,75c-.73,27.62-23.3,48.83-42,69.22s-35.59,49.48-23.3,74.24c11.12,22.39,40.22,28.42,65.21,27.89s51.66-4.56,73.66,7.3c36.64,19.75,39.77,72.2,26.29,111.59s-38.56,75.48-42.28,116.94c-4.22,47,23.06,95.18,65.37,116V0C319.9,58.45,280.45,113.22,225.49,135.18Z"/></g></g></svg>