<svg id="Logo" xmlns="http://www.w3.org/2000/svg" xmlns:xlink="http://www.w3.org/1999/xlink" width="817.2" height="703.1" viewBox="0 0 817.2 703.1">
  <defs>
    <clipPath id="clip-path">
      <path id="Pfad_14" data-name="Pfad 14" d="M0,262.867H817.2v-703.1H0Z" transform="translate(0 440.233)" fill="none"/>
    </clipPath>
  </defs>
  <g id="Logo-2" data-name="Logo" clip-path="url(#clip-path)">
    <g id="Gruppe_2" data-name="Gruppe 2" transform="translate(730.579 81.538)">
      <path id="Pfad_1" data-name="Pfad 1" d="M27.1,0c3.56,9.615,7.158,19.216,10.672,28.849a60.919,60.919,0,0,1,2.865,29.179c-2.059,15.49-3.731,31.156-7.5,46.265C27.714,125.972,18,145.551-.392,159.808a33.911,33.911,0,0,1-24.243,7.425A16.67,16.67,0,0,1-37.718,159.8c-5.384-7.66-8.19-16.185-7.577-25.359,1.116-16.749,2.37-33.53,4.654-50.148,1.846-13.428,9.431-24.8,16.423-36.1,2.466-3.985,6-7.736,11.807-7.827,11.074-.176,17.571,5.983,17.014,17.1C4.061,68.273-.555,77.631-7.185,85.9A175.983,175.983,0,0,1-21.864,101.9a17.626,17.626,0,0,0-5.829,12.122c-.409,6.349-1.988,12.694-1.754,18.993a68.868,68.868,0,0,0,3.463,17.722c1.439,4.6,4.186,5.52,8.952,4.307,6.479-1.65,11.268-5.7,15.19-10.98C8.539,130.1,15.071,114.367,18.986,97.577A300.5,300.5,0,0,0,27.15,22.562C26.987,15.107,26.4,7.66,26.015.209L27.1,0M-25.339,88.871c7.569-8.279,15.32-16.6,15.433-29.936-9.357,9.838-14.815,18.908-15.433,29.936" transform="translate(45.378)" fill="#fff"/>
    </g>
    <g id="Gruppe_3" data-name="Gruppe 3" transform="translate(0 84.689)">
      <path id="Pfad_2" data-name="Pfad 2" d="M130.3,69.641c-4.641-10.413-11.453-17.321-21.909-21.663C98.577,43.9,89.915,38.69,84.876,27.852c-4.649-10-12.464-11.2-20.584-3.324A66.447,66.447,0,0,0,49.722,46.65C40.66,68.788,28.958,89.022,8.567,102.129c-34.608,22.245-71.7,34.459-113.4,23.048-7.476-2.046-15.121-4.279-23.109,1.073,4.135,5.967,7.182,11.582,11.413,16.086,3.469,3.694,7.958,7.5,12.665,8.77,19.809,5.336,39.781,6.617,59.657-.493,6.994-2.5,14.235-4.363,21.44-6.222,45.973-11.86,77.348-39.818,94.642-86.022,8.3,5.865,15.5,12.4,23.9,16.493,8.912,4.338,14.05,10.627,17.083,19.573q8.933,26.333,18.206,52.55a128.774,128.774,0,0,1,5.651,66.877c-4.509,25.674-10.354,50.612-19.648,74.916-6.352,16.607-14.455,32.084-26.793,44.888-26.036,27.026-57.051,37.943-94.191,27.75-36.239-9.945-64.313-32.576-89.295-59.133-33.353-35.457-54.966-78.083-71.083-123.591-15.626-44.125-19.116-89.654-9.514-135.2,10.456-49.611,35.838-89.912,83.749-111.759C-53.455-84.964-18.1-79.863,15-57.706c6.443,4.312,11.681,4.478,16.969-.712,5.028-4.935,4.477-10.372,1.174-15.939a24.567,24.567,0,0,0-2.009-2.468C12.538-100.463-14.5-108.6-41.687-116.416c-1.471-.422-3.178-.105-4.769-.011-37.23,2.183-71.335,13.888-99.569,38.158C-185.4-44.423-209.193-.982-215.648,50.748c-6.914,55.405-.117,108.8,23.318,160.4,33.7,74.213,85.168,130.006,159.539,164.445,75.879,35.138,156.591-10.062,179.584-79.276,4.681-14.086,8.35-28.508,12.483-42.777,7.233-24.972,14.019-50.061,10.354-76.442-3.175-31.921-23.882-75.805-39.329-107.458" transform="translate(218.218 116.63)" fill="#fff"/>
    </g>
    <g id="Gruppe_4" data-name="Gruppe 4" transform="translate(468.656 129.537)">
      <path id="Pfad_3" data-name="Pfad 3" d="M0,5.268c9.885-9.405,12.13-8.723,20.146,7C22.794,7.544,24.849,3.85,26.932.17c6.189-10.927,13.916-12.136,21.708-2.3,4.614,5.821,8.813,12.85,10.21,19.9C64.207,44.8,69.323,71.951,72.728,99.279c5.029,40.348,8.549,80.882,12.627,121.345.494,4.9.454,9.851.68,15.257-6.315,1.72-10.354,1.353-11.306-4.755-2.241-14.361-4.787-28.692-6.395-43.125-5.4-48.418-9.974-96.935-15.963-145.278C50.956,31.291,49.106,18.8,38.128,9.615c-6.305,6.626-6.214,14.43-5.791,21.424,1.543,25.531,3.935,51.007,6.158,76.49.61,6.992,1.934,13.919,2.608,20.906q5.139,53.2,10.06,106.412c.583,6.331.639,12.711.966,19.644-17.653-5.015-21.515-9.576-22.633-23.807-4.253-54.067-8.1-108.175-13.3-162.15-1.722-17.894-6.909-35.462-10.868-53.1C4.6,12.179,2.169,9.291,0,5.268" transform="translate(0 8.823)" fill="#fff"/>
    </g>
    <g id="Gruppe_5" data-name="Gruppe 5" transform="translate(414.554 129.472)">
      <path id="Pfad_4" data-name="Pfad 4" d="M28.943,102.835c-33.118-5.976-42.857-28.58-49.832-52.155C-27.037,29.895-30.3,8.263-35.021-12.953c-1.493-6.7-3.384-13.328-5.446-19.878-9.789-31.081-9.2-62.81-5.611-94.624A300.659,300.659,0,0,1-39.769-161.8c2.576-11.065,6.591-12.456,17.218-8.171,11.207,4.518,18.613,12.042,20.564,24.185C2.238-119.5.136-93.9-11.873-69.819c-2.709,5.43-7.759,9.694-13.43,16.548,6.7,35.435,12.929,73.13,21.347,110.33C-1.043,69.933,4.428,83.449,19.63,89.1c3.354,1.246,5,7.1,9.313,13.738M-25.918-78.75c10.969-17.289,13.061-50.09,4.058-63.611-7.548,13.222-9.656,46.268-4.058,63.611" transform="translate(48.472 172.221)" fill="#fff"/>
    </g>
    <g id="Gruppe_6" data-name="Gruppe 6" transform="translate(551.348 149.495)">
      <path id="Pfad_5" data-name="Pfad 5" d="M.766.219C10.126-1.664,15.4,1.032,20.945,7.7c17.988,21.639,24.091,46.64,24.594,73.959.441,23.9,1.653,47.8,2.674,71.686.556,13.013-1.631,25.437-7.615,37.019-4.076,7.887-7.958,9.158-15.126,3.657-4.866-3.732-10.023-8.714-12.01-14.232-4.095-11.375-6.586-23.394-8.973-35.3C-3,107.138-1.855,69.439.472,31.692,1.114,21.269.7,10.779.766.219M25.625,183.307C39.566,165.5,34.145,66,18.3,33.051c-10.459,23.39-5.94,125.712,7.326,150.256" transform="translate(1.282 0.367)" fill="#fff"/>
    </g>
    <g id="Gruppe_7" data-name="Gruppe 7" transform="translate(597.517 141.134)">
      <path id="Pfad_6" data-name="Pfad 6" d="M10.657,69.874c-19.6-10.44-19.041-28.62-20.133-45.061-1.83-27.558-1.469-55.254-2.918-82.845-.8-15.27-3.407-30.447-5.453-47.816l11.17-11.172c2.64,5.449,5.742,8.888,5.746,12.333.05,28.623-.072,57.26-.95,85.867-.7,22.845,3.055,45.053,6.5,71.172,3.566-5.491,6.085-7.7,6.451-10.217C12.746,30.606,15.03,18.971,14.868,7.4c-.442-31.9-2.07-63.773-3.062-95.664-.224-7.185-1.158-14.8,7.459-22.275,2.448,5.7,5.8,10.009,5.962,14.435,1.418,38.224,3.036,76.47,2.937,114.706C28.118,36.646,23.943,54.5,10.657,69.874" transform="translate(17.847 117.02)" fill="#fff"/>
    </g>
    <g id="Gruppe_8" data-name="Gruppe 8" transform="translate(674.452 27.525)">
      <path id="Pfad_7" data-name="Pfad 7" d="M.521,96.492C9.2,11,1.415-74.513-.872-160.018q2.348-.793,4.7-1.581c3.06,3.065,8.27,5.8,8.808,9.252,11.731,20.248,12.4,26.879,9.771,67.337,2.669,26.528-2.961,58.223-3.966,86.17-.987,27.475-6.074,54.814-9.677,82.171-.594,4.509-2.8,8.806-4.261,13.2q-1.991-.019-3.982-.042" transform="translate(0.872 161.599)" fill="#fff"/>
    </g>
    <g id="Gruppe_9" data-name="Gruppe 9" transform="translate(696.207 0)">
      <path id="Pfad_8" data-name="Pfad 8" d="M8.766.977c6.807-.62,4.56-5.938,12.644.658,13.932,18.809-5.4,89.815-6.724,129.107-.34,10.1-1.076,19.111-.91,29.222.551,33.721-5.584,66.288-14.8,98.368-1.861,6.48-5.2,10.075-13.662,8.953C5.9,179.305.11,89.6,8.766.977" transform="translate(14.681 1.636)" fill="#fff"/>
    </g>
    <g id="Gruppe_10" data-name="Gruppe 10" transform="translate(115.921 176.492)">
      <path id="Pfad_9" data-name="Pfad 9" d="M34.442,33.143C28.06,38.158,24.872,41.33,21.106,43.5,10.554,49.563-.21,55.263-10.941,61.016-22.6,67.269-32.9,69.033-36.823,56.164c-2.151-7.054-3.189-14.443-4.961-21.623-5.826-23.612-8.34-51.606-14.08-75.24-1.024-4.21-1.094-8.653-1.818-14.807,13.708,10.555,30.676,60.752,34.229,96.86,18.99,5.77,34.523-14.671,57.894-8.211" transform="translate(57.681 55.506)" fill="#fff"/>
    </g>
    <g id="Gruppe_11" data-name="Gruppe 11" transform="translate(651.513 128.624)">
      <path id="Pfad_10" data-name="Pfad 10" d="M.24.89C7.079,4.252,17.676-5.078,17.962.122c.989,17.963-2.18,67.923-.1,85.77-1.944,40.5-5.342,54.6-9.968,80.244A39.539,39.539,0,0,1,4.675,175c-.3.672-1.762.824-4.26,1.877C.16,126.153-.121,76.076-.231,26-.234,24.342-.836,2.823.24.89" transform="translate(0.402 1.491)" fill="#fff"/>
    </g>
    <g id="Gruppe_12" data-name="Gruppe 12" transform="translate(166.027 160.002)">
      <path id="Pfad_11" data-name="Pfad 11" d="M32.028,15.052c-.533-1.1-1.048-2.217-1.562-3.332-.84-1.819-1.683-3.637-2.6-5.413-.66-1.286-1.394-2.536-2.127-3.785A42.618,42.618,0,0,1,22.61-3.485C17.408-16.733-1.85-28.721-18.8-24.259-31.585-20.924-42.171-13.547-51.7-6.069A4.262,4.262,0,0,0-53.638-2.7c.018,1.342.819,2.578,2.445,3.782A16.656,16.656,0,0,0-38.473,3.967a14.877,14.877,0,0,0,9.955-6.254c4.587-6.738,14.618-9.1,21.476-5.04A31.392,31.392,0,0,1,4.67,5.5C-9.1,12.452-15.524,17.9-21.4,27.462l-.415.676.4.687c3.55,6.192,11.1,8.813,18.814,6.548,7.479-2.218,13.039-5.213,17.5-9.431a12.33,12.33,0,0,1,1.944-1.389c.013-.006.027-.016.04-.024l9.362,8.35,1.9-2.182c.521-.6.917-1.07,1.351-1.5,4.18-4.208,5.033-8.966,2.543-14.139M7.263,16.159C6.179,23.119.838,26.446-8.93,26.253A19,19,0,0,1,7.263,16.159" transform="translate(53.638 25.209)" fill="#fff"/>
    </g>
    <g id="Gruppe_13" data-name="Gruppe 13" transform="translate(324.812 106.196)">
      <path id="Pfad_12" data-name="Pfad 12" d="M43.776,124.351c-16.206,1.643-21.029-.466-26.1-15.024C7.371,79.795-2.613,50.116-11.548,20.152c-12.039-40.373-22.507-81.21-34.621-121.561-4.261-14.19-11.4-27.531-17.195-41.271-2.785-6.6-5.51-13.232-9.948-23.9,10.014,2.6,15.748,4.09,19.739,5.125,5.108-15.664,10.169-31.184,15.259-46.8,21.091,8.663,44.815,40.062,44.8,58.421,0,5.9-3.389,11.713-6.358,21.165-8.655-10.744-14.564-18.076-20.472-25.408l-3.665,1.164c2.247,15.811,3.4,31.866,6.968,47.385C-9.427-72.461-1.007-39.549,7.909-6.794c11.049,40.589,22.962,80.946,34.405,121.43.88,3.116.989,6.446,1.461,9.715" transform="translate(73.312 208.255)" fill="#fff"/>
    </g>
    <g id="Gruppe_14" data-name="Gruppe 14" transform="translate(638.833 51.409)">
      <path id="Pfad_13" data-name="Pfad 13" d="M2.284,0C16.417,8.35,24.42,32.247,20.07,51.481,3.006,51.75.173,49.8-1.782,34.258-3.2,23.014-7.172,11.3,2.284,0" transform="translate(3.825)" fill="#fff"/>
    </g>
  </g>
  <g id="Theaterzentrum">
    <g id="Gruppe_16" data-name="Gruppe 16" transform="translate(323.434 662.484)">
      <path id="Pfad_15" data-name="Pfad 15" d="M-2.748-1.584l3.817,7-1.682.916-3.817-7L-6.916.688-7.748-.838l6.654-3.627L-.262-2.94Z" transform="translate(7.748 4.465)" fill="#ddde41"/>
    </g>
    <g id="Gruppe_23" data-name="Gruppe 23" clip-path="url(#clip-path)">
      <g id="Gruppe_17" data-name="Gruppe 17" transform="translate(337.408 598.219)">
        <path id="Pfad_16" data-name="Pfad 16" d="M5.868,8.114,2,10.221l-11.83-21.7,3.863-2.1,4.7,8.621A5.927,5.927,0,0,1,1.979-9.7c3.122-1.7,6.181-.9,8.206,2.814L15.5,2.864,11.635,4.971,6.872-3.77C5.7-5.91,4.215-6.45,2.461-5.493.767-4.57.05-2.559,1.314-.24Z" transform="translate(9.827 13.589)" fill="#ddde41"/>
      </g>
      <g id="Gruppe_18" data-name="Gruppe 18" transform="translate(360.431 592.319)">
        <path id="Pfad_17" data-name="Pfad 17" d="M6.2,1.959l.42.773L-4.68,8.891a4.318,4.318,0,0,0,5.927,1.321A5.446,5.446,0,0,0,3.954,5.765l3.894.423A8.879,8.879,0,0,1,2.923,13.5,8.6,8.6,0,0,1-9.223,9.825,8.629,8.629,0,0,1-5.768-2.163c4.4-2.4,9.227-.9,11.966,4.122M-6.187,6.126.978,2.22A3.6,3.6,0,0,0-4.03,1.1C-5.9,2.116-7,3.988-6.187,6.126" transform="translate(10.379 3.282)" fill="#ddde41"/>
      </g>
      <g id="Gruppe_19" data-name="Gruppe 19" transform="translate(377.412 582.895)">
        <path id="Pfad_18" data-name="Pfad 18" d="M5.594,5.206a6.428,6.428,0,0,1-3.45,4C-.889,10.86-4.433,10.439-6.071,7.439-7.691,4.463-6.178,2.289-2.682-.426l.973-.762a28.432,28.432,0,0,0,2.281-1.9L.394-3.414C-.481-5.019-1.671-5.22-3.484-4.23c-1.723.939-2.265,2.353-1.468,3.884L-8.638,1.665c-1.827-3.209-.1-6.967,3.71-9.041C-1-9.515,2.172-9.28,4.28-5.34L7.428.5c.728,1.338,1.08,1.417,2.18.816l1.426,2.618A5.23,5.23,0,0,1,9.571,5c-1.4.763-2.643,1.1-3.977.2m-4.213.407c1.605-.875,2.6-2.456,1.573-4.33L2.144-.2C1.512.335.673,1.061-.623,2.077-2.244,3.348-2.546,4.283-2.043,5.2c.6,1.1,1.878,1.254,3.424.41" transform="translate(9.369 8.718)" fill="#ddde41"/>
      </g>
      <g id="Gruppe_20" data-name="Gruppe 20" transform="translate(391.012 572.564)">
        <path id="Pfad_19" data-name="Pfad 19" d="M6.566,6.4,3.594,8.02c-2.943,1.605-4.916,1.1-7.04-2.795l-3.646-6.69L-9.173-.329l-1.75-3.212,2.081-1.136L-11-8.629l3.836-2.091,2.155,3.954,3.389-1.848L.133-5.4-3.256-3.555.553,3.432c.567,1.04,1.052,1.508,2.3.827l1.961-1.07Z" transform="translate(10.997 10.72)" fill="#ddde41"/>
      </g>
      <g id="Gruppe_21" data-name="Gruppe 21" transform="translate(405.262 567.883)">
        <path id="Pfad_20" data-name="Pfad 20" d="M6.2,1.959l.42.771-11.3,6.158A4.314,4.314,0,0,0,1.246,10.21,5.444,5.444,0,0,0,3.953,5.765l3.894.423A8.874,8.874,0,0,1,2.925,13.5,8.6,8.6,0,0,1-9.223,9.824,8.628,8.628,0,0,1-5.768-2.163c4.4-2.4,9.227-.9,11.966,4.122M-6.187,6.125.978,2.218A3.6,3.6,0,0,0-4.031,1.094C-5.9,2.114-7,3.988-6.187,6.125" transform="translate(10.379 3.282)" fill="#ddde41"/>
      </g>
      <g id="Gruppe_22" data-name="Gruppe 22" transform="translate(420.755 558.537)">
        <path id="Pfad_21" data-name="Pfad 21" d="M4.5,6.708.64,8.815-7.544-6.2l3.776-2.059L-2.46-6A6.05,6.05,0,0,1,.865-10.937a3.751,3.751,0,0,1,.687-.3l2.075,3.8-1.013.553C.386-5.662-1.037-3.461.552-.546Z" transform="translate(7.544 11.234)" fill="#ddde41"/>
      </g>
    </g>
    <g id="Gruppe_24" data-name="Gruppe 24" transform="translate(438.878 561.17)">
      <path id="Pfad_23" data-name="Pfad 23" d="M-4.486-3.324-9.423-.633l-.767-1.405,1.261-5.034-3,1.637-.714-1.309,4.817-2.626.759,1.394L-8.286-2.951-5.2-4.634Z" transform="translate(12.645 9.371)" fill="#ddde41"/>
    </g>
    <g id="Gruppe_40" data-name="Gruppe 40" clip-path="url(#clip-path)">
      <g id="Gruppe_25" data-name="Gruppe 25" transform="translate(449.556 543.739)">
        <path id="Pfad_24" data-name="Pfad 24" d="M6.2,1.959l.422.771-11.3,6.16a4.319,4.319,0,0,0,5.927,1.321A5.449,5.449,0,0,0,3.954,5.765l3.894.423A8.879,8.879,0,0,1,2.923,13.5,8.6,8.6,0,0,1-9.223,9.825,8.628,8.628,0,0,1-5.768-2.163c4.4-2.4,9.227-.9,11.966,4.122M-6.187,6.125.978,2.22A3.6,3.6,0,0,0-4.03,1.094C-5.9,2.114-7,3.988-6.187,6.125" transform="translate(10.379 3.282)" fill="#ddde41"/>
      </g>
      <g id="Gruppe_26" data-name="Gruppe 26" transform="translate(465.05 533.665)">
        <path id="Pfad_25" data-name="Pfad 25" d="M4.5,6.98.64,9.086-7.544-5.928l3.776-2.057,1.145,1.96A5.913,5.913,0,0,1,.616-10.838c3.122-1.7,6.181-.9,8.206,2.816L14.137,1.73,10.272,3.837,5.509-4.9C4.342-7.044,2.852-7.583,1.1-6.628-.6-5.7-1.314-3.694-.049-1.375Z" transform="translate(7.544 11.689)" fill="#ddde41"/>
      </g>
      <g id="Gruppe_27" data-name="Gruppe 27" transform="translate(480.97 523.53)">
        <path id="Pfad_26" data-name="Pfad 26" d="M6.566,6.4,3.593,8.02C.651,9.626-1.323,9.119-3.446,5.226L-7.092-1.463-9.173-.331l-1.75-3.21,2.081-1.136L-11-8.629l3.835-2.091,2.155,3.953,3.389-1.846L.133-5.4-3.257-3.555.552,3.432c.567,1.04,1.054,1.508,2.3.827L4.816,3.191Z" transform="translate(10.997 10.72)" fill="#ddde41"/>
      </g>
      <g id="Gruppe_28" data-name="Gruppe 28" transform="translate(493.529 518.87)">
        <path id="Pfad_27" data-name="Pfad 27" d="M4.5,6.708.64,8.815-7.544-6.2l3.776-2.059L-2.46-6A6.05,6.05,0,0,1,.865-10.939a3.72,3.72,0,0,1,.687-.3l2.075,3.8-1.013.551C.386-5.663-1.037-3.461.552-.546Z" transform="translate(7.544 11.234)" fill="#ddde41"/>
      </g>
      <g id="Gruppe_29" data-name="Gruppe 29" transform="translate(505.063 510.275)">
        <path id="Pfad_28" data-name="Pfad 28" d="M6.291,5.689a5.965,5.965,0,0,1-3.213,4.646c-3.033,1.651-6.352.8-8.263-2.709l-5.349-9.811,3.9-2.123,4.828,8.859C-.757,6.484.811,7.1,2.593,6.125c1.666-.909,2.325-2.813,1.11-5.04L-.932-7.42,2.933-9.527,11.117,5.489,7.37,7.53Z" transform="translate(10.535 9.527)" fill="#ddde41"/>
      </g>
      <g id="Gruppe_30" data-name="Gruppe 30" transform="translate(522.811 497.342)">
        <path id="Pfad_29" data-name="Pfad 29" d="M4.5,8.789.64,10.9-7.544-4.119l3.776-2.057,1.1,1.87A5.78,5.78,0,0,1,.349-8.881a5.456,5.456,0,0,1,5.761.1,6.432,6.432,0,0,1,3.336-5.058c3.151-1.717,6.315-.936,8.212,2.543l5.429,9.96L19.192.784l-4.8-8.8c-1.136-2.081-2.624-2.619-4.288-1.712-1.546.842-2.193,2.7-.912,5.047l4.585,8.415-3.865,2.1-4.8-8.8C3.984-5.042,2.526-5.6.831-4.673-.715-3.83-1.379-2-.1.345Z" transform="translate(7.544 14.719)" fill="#ddde41"/>
      </g>
      <g id="Gruppe_31" data-name="Gruppe 31" transform="translate(554.052 480.705)">
        <path id="Pfad_30" data-name="Pfad 30" d="M.115,1.433A2.6,2.6,0,0,1,1.174-2.074a2.579,2.579,0,0,1,3.52,1.013A2.587,2.587,0,0,1,3.653,2.474,2.61,2.61,0,0,1,.115,1.433M9.95,24.57a7.067,7.067,0,0,0,1.032-.444,1.569,1.569,0,0,0,.623-2.463L3.081,6.025,6.946,3.918l8.671,15.907c1.8,3.3,1.286,5.545-2.043,7.359a15.537,15.537,0,0,1-1.744.835Z" transform="translate(0.193 2.4)" fill="#ddde41"/>
      </g>
      <g id="Gruppe_32" data-name="Gruppe 32" transform="translate(565.233 477.478)">
        <path id="Pfad_31" data-name="Pfad 31" d="M6.291,5.689a5.965,5.965,0,0,1-3.213,4.646c-3.033,1.651-6.352.8-8.263-2.709l-5.349-9.811,3.9-2.123,4.828,8.859C-.757,6.484.811,7.1,2.593,6.123,4.259,5.216,4.919,3.314,3.7,1.084L-.932-7.42,2.933-9.527,11.117,5.487,7.37,7.53Z" transform="translate(10.535 9.527)" fill="#ddde41"/>
      </g>
      <g id="Gruppe_33" data-name="Gruppe 33" transform="translate(582.981 469.384)">
        <path id="Pfad_32" data-name="Pfad 32" d="M4.5,6.98.64,9.086-7.544-5.928l3.776-2.059,1.145,1.961A5.911,5.911,0,0,1,.616-10.838c3.122-1.7,6.181-.9,8.206,2.816L14.138,1.73,10.273,3.837,5.509-4.9C4.342-7.046,2.853-7.584,1.1-6.628-.6-5.7-1.314-3.694-.049-1.375Z" transform="translate(7.544 11.689)" fill="#ddde41"/>
      </g>
      <g id="Gruppe_34" data-name="Gruppe 34" transform="translate(602.229 457.758)">
        <path id="Pfad_33" data-name="Pfad 33" d="M6.268,9.355c-4.044,2.2-7.933,1.933-10.242-1.243L-.14,6.02c1.105,1.251,2.709,1.148,4.581.126,2.231-1.215,3-2.91,1.757-5.2L5.1-1.073A6.283,6.283,0,0,1,1.557,3.4c-3.33,1.814-8.31,1.1-10.935-3.72A8.064,8.064,0,0,1-6.455-11.438c2.2-1.2,4.151-1.3,5.662-.58l-.77-1.624,3.716-2.025L10.079-1.13c2.431,4.461.47,8.152-3.811,10.485M2.079-6.678A4.2,4.2,0,0,0-3.695-8.354,4.144,4.144,0,0,0-5.365-2.507,4.181,4.181,0,0,0,.52-.624,4.245,4.245,0,0,0,2.079-6.678" transform="translate(10.497 15.667)" fill="#ddde41"/>
      </g>
      <g id="Gruppe_35" data-name="Gruppe 35" transform="translate(620.998 450.289)">
        <path id="Pfad_34" data-name="Pfad 34" d="M6.2,1.959l.42.773-11.3,6.158a4.317,4.317,0,0,0,5.927,1.321A5.445,5.445,0,0,0,3.953,5.765l3.894.423A8.878,8.878,0,0,1,2.925,13.5,8.6,8.6,0,0,1-9.222,9.825,8.628,8.628,0,0,1-5.767-2.163c4.4-2.4,9.225-.9,11.964,4.122M-6.187,6.125.978,2.22A3.6,3.6,0,0,0-4.031,1.1C-5.9,2.116-7,3.988-6.187,6.125" transform="translate(10.378 3.282)" fill="#ddde41"/>
      </g>
      <g id="Gruppe_36" data-name="Gruppe 36" transform="translate(637.832 441.071)">
        <path id="Pfad_35" data-name="Pfad 35" d="M1.651,6.919l.768-3.967a7.155,7.155,0,0,0,5.544-.514C9.478,1.612,10.47.531,9.919-.48c-.438-.8-1.214-.882-3.352-.139L5.038-.1C1.73,1.051-.75.746-2.128-1.782c-1.8-3.3.489-6.745,3.463-8.366a10.586,10.586,0,0,1,6.97-1.29L7.763-7.48a6.648,6.648,0,0,0-4.755.548C1.639-6.188.694-5.094,1.229-4.112c.422.773,1.132.733,3.3-.027l1.556-.54c3.368-1.179,5.98-.636,7.34,1.862,1.864,3.419-.446,6.682-3.776,8.5a11.327,11.327,0,0,1-8,1.238" transform="translate(2.764 11.588)" fill="#ddde41"/>
      </g>
      <g id="Gruppe_37" data-name="Gruppe 37" transform="translate(656.565 421.214)">
        <path id="Pfad_36" data-name="Pfad 36" d="M0,2.212,8.265-2.294C13.29-5.033,17.34-3.615,19.592.517,21.877,4.71,20.8,8.961,15.807,11.682l-4.044,2.2,3.907,7.166-4.164,2.268ZM6.221,3.719,9.7,10.111l4.015-2.188a3.478,3.478,0,0,0,1.608-5.042A3.533,3.533,0,0,0,10.2,1.547Z" transform="translate(0 3.704)" fill="#ddde41"/>
      </g>
      <g id="Gruppe_38" data-name="Gruppe 38" transform="translate(678.497 415.74)">
        <path id="Pfad_37" data-name="Pfad 37" d="M6.291,5.689a5.958,5.958,0,0,1-3.215,4.644c-3.033,1.653-6.35.8-8.263-2.707l-5.347-9.811,3.9-2.124,4.828,8.861C-.757,6.484.809,7.1,2.593,6.123,4.257,5.216,4.919,3.314,3.7,1.084L-.932-7.42,2.932-9.527,11.117,5.487,7.37,7.53Z" transform="translate(10.535 9.527)" fill="#ddde41"/>
      </g>
      <g id="Gruppe_39" data-name="Gruppe 39" transform="translate(692.598 404.611)">
        <path id="Pfad_38" data-name="Pfad 38" d="M7.663,7.281a6.336,6.336,0,0,1-5.85.374l.96,1.905L-1,11.618l-11.831-21.7,3.865-2.107,4.505,8.265A7.1,7.1,0,0,1-.788-8.437c3.3-1.8,8.434-1.011,11.157,3.985,2.69,4.933.682,9.885-2.707,11.732M4.869,4.136C6.861,3.05,7.925.542,6.4-2.253A4.449,4.449,0,0,0,.251-4.337c-1.963,1.07-3.119,3.474-1.58,6.3,1.524,2.795,4.237,3.244,6.2,2.174" transform="translate(12.833 12.193)" fill="#ddde41"/>
      </g>
    </g>
    <g id="Gruppe_41" data-name="Gruppe 41" transform="translate(774.437 402.625)">
      <path id="Pfad_40" data-name="Pfad 40" d="M0-.468l1.562-.851L6.341,7.45,4.78,8.3Z" transform="translate(0 1.319)" fill="#ddde41"/>
    </g>
    <g id="Gruppe_67" data-name="Gruppe 67" clip-path="url(#clip-path)">
      <g id="Gruppe_42" data-name="Gruppe 42" transform="translate(719.874 390.318)">
        <path id="Pfad_41" data-name="Pfad 41" d="M.115,1.433A2.6,2.6,0,0,1,1.173-2.074,2.582,2.582,0,0,1,4.694-1.063,2.588,2.588,0,0,1,3.653,2.474,2.608,2.608,0,0,1,.115,1.433M3.081,6.025,6.946,3.918,15.13,18.932l-3.865,2.107Z" transform="translate(0.193 2.4)" fill="#ddde41"/>
      </g>
      <g id="Gruppe_43" data-name="Gruppe 43" transform="translate(727.647 385.507)">
        <path id="Pfad_42" data-name="Pfad 42" d="M5.868,8.114,2,10.221l-11.83-21.7,3.865-2.107L1.072-.686,2.918-9.753l4.846-2.642-2.392,9.9L16.065,2.556,11.042,5.294,4.529,1.98c-1.081-.569-1.854.278-1.385,1.14Z" transform="translate(9.827 13.589)" fill="#ddde41"/>
      </g>
      <g id="Gruppe_44" data-name="Gruppe 44" transform="translate(747.555 378.097)">
        <path id="Pfad_43" data-name="Pfad 43" d="M6.291,5.689a5.965,5.965,0,0,1-3.213,4.646c-3.033,1.651-6.352.8-8.265-2.709l-5.347-9.811,3.894-2.123,4.83,8.859C-.757,6.484.811,7.1,2.593,6.125c1.666-.909,2.325-2.811,1.11-5.04L-.932-7.42,2.933-9.527,11.117,5.487,7.37,7.53Z" transform="translate(10.535 9.527)" fill="#ddde41"/>
      </g>
      <g id="Gruppe_45" data-name="Gruppe 45" transform="translate(765.303 365.164)">
        <path id="Pfad_44" data-name="Pfad 44" d="M4.5,8.789.64,10.9-7.544-4.119l3.776-2.057,1.1,1.87A5.783,5.783,0,0,1,.349-8.883a5.459,5.459,0,0,1,5.761.1,6.434,6.434,0,0,1,3.336-5.058c3.151-1.717,6.315-.936,8.212,2.543l5.429,9.96L19.192.783l-4.8-8.8c-1.136-2.083-2.624-2.621-4.288-1.712-1.546.842-2.193,2.7-.912,5.047l4.585,8.414L9.916,5.839l-4.8-8.8C3.984-5.042,2.526-5.6.831-4.673-.715-3.83-1.378-2-.1.345Z" transform="translate(7.544 14.719)" fill="#ddde41"/>
      </g>
      <g id="Gruppe_46" data-name="Gruppe 46" transform="translate(342.296 638.888)">
        <path id="Pfad_45" data-name="Pfad 45" d="M.566,6.927a12.453,12.453,0,0,1,5.1-16.893,12.056,12.056,0,0,1,12.044-.048L15.5-5.648A6.986,6.986,0,0,0,7.79-6C3.985-3.922,2.559.327,4.86,4.549c2.365,4.339,6.908,5.528,10.6,3.517,2.675-1.458,3.785-3.526,3.863-6.848l4.806.466a12.44,12.44,0,0,1-6.559,10.324,12.464,12.464,0,0,1-17-5.08" transform="translate(0.948 11.602)" fill="#ddde41"/>
      </g>
      <g id="Gruppe_47" data-name="Gruppe 47" transform="translate(366.53 635.269)">
        <path id="Pfad_46" data-name="Pfad 46" d="M6.2,1.959l.42.771-11.3,6.158A4.314,4.314,0,0,0,1.246,10.21,5.444,5.444,0,0,0,3.953,5.765l3.894.423A8.877,8.877,0,0,1,2.925,13.5,8.6,8.6,0,0,1-9.223,9.824,8.628,8.628,0,0,1-5.768-2.163c4.4-2.4,9.227-.9,11.966,4.122M-6.187,6.125.978,2.22A3.6,3.6,0,0,0-4.031,1.094C-5.9,2.114-7,3.988-6.187,6.125" transform="translate(10.379 3.282)" fill="#ddde41"/>
      </g>
      <g id="Gruppe_48" data-name="Gruppe 48" transform="translate(382.023 625.195)">
        <path id="Pfad_47" data-name="Pfad 47" d="M4.5,6.98.64,9.086-7.544-5.928l3.776-2.059,1.145,1.96a5.91,5.91,0,0,1,3.239-4.81c3.122-1.7,6.181-.9,8.208,2.814L14.138,1.73l-3.865,2.1L5.508-4.9C4.342-7.046,2.853-7.584,1.1-6.628-.6-5.7-1.314-3.694-.049-1.375Z" transform="translate(7.544 11.689)" fill="#ddde41"/>
      </g>
      <g id="Gruppe_49" data-name="Gruppe 49" transform="translate(397.942 615.061)">
        <path id="Pfad_48" data-name="Pfad 48" d="M6.566,6.4,3.594,8.021C.651,9.627-1.322,9.12-3.446,5.227l-3.646-6.69L-9.173-.33l-1.75-3.212,2.081-1.134L-11-8.628l3.835-2.091,2.156,3.953,3.389-1.848L.133-5.4-3.257-3.556.552,3.431c.567,1.04,1.054,1.509,2.3.829L4.816,3.19Z" transform="translate(10.997 10.719)" fill="#ddde41"/>
      </g>
      <g id="Gruppe_50" data-name="Gruppe 50" transform="translate(410.502 610.399)">
        <path id="Pfad_49" data-name="Pfad 49" d="M4.5,6.708.64,8.815-7.544-6.2l3.776-2.057L-2.462-6A6.055,6.055,0,0,1,.865-10.937a3.747,3.747,0,0,1,.685-.3L3.625-7.428l-1.011.551C.384-5.662-1.039-3.459.55-.546Z" transform="translate(7.544 11.234)" fill="#ddde41"/>
      </g>
      <g id="Gruppe_51" data-name="Gruppe 51" transform="translate(423.607 604.157)">
        <path id="Pfad_50" data-name="Pfad 50" d="M6.2,1.959l.422.771-11.3,6.16A4.315,4.315,0,0,0,1.246,10.21,5.44,5.44,0,0,0,3.953,5.765l3.894.423A8.878,8.878,0,0,1,2.925,13.5,8.6,8.6,0,0,1-9.223,9.824,8.629,8.629,0,0,1-5.768-2.163c4.4-2.4,9.227-.9,11.966,4.122M-6.187,6.125.978,2.22A3.6,3.6,0,0,0-4.031,1.094C-5.9,2.114-7,3.988-6.187,6.125" transform="translate(10.379 3.282)" fill="#ddde41"/>
      </g>
      <g id="Gruppe_52" data-name="Gruppe 52" transform="translate(445.507 589.134)">
        <path id="Pfad_51" data-name="Pfad 51" d="M6.566,6.4,3.594,8.022c-2.943,1.6-4.916,1.1-7.04-2.8l-3.646-6.69L-9.171-.331l-1.752-3.21,2.081-1.136L-11-8.629l3.836-2.091,2.155,3.953,3.389-1.846L.133-5.4-3.256-3.555.553,3.432c.567,1.041,1.052,1.508,2.3.827L4.816,3.191Z" transform="translate(10.997 10.72)" fill="#ddde41"/>
      </g>
      <g id="Gruppe_53" data-name="Gruppe 53" transform="translate(454.421 580.711)">
        <path id="Pfad_52" data-name="Pfad 52" d="M5.868,8.114,2,10.221l-11.83-21.7,3.863-2.107,4.7,8.623A5.918,5.918,0,0,1,1.979-9.7c3.122-1.7,6.181-.9,8.206,2.814L15.5,2.864,11.637,4.971,6.872-3.77C5.7-5.91,4.216-6.448,2.461-5.493.767-4.569.05-2.559,1.314-.24Z" transform="translate(9.827 13.589)" fill="#ddde41"/>
      </g>
      <g id="Gruppe_54" data-name="Gruppe 54" transform="translate(477.445 567.323)">
        <path id="Pfad_53" data-name="Pfad 53" d="M6.2,4.759l.42.771-11.3,6.16A4.314,4.314,0,0,0,1.246,13.01,5.444,5.444,0,0,0,3.953,8.565l3.894.423A8.878,8.878,0,0,1,2.923,16.3,8.6,8.6,0,0,1-9.223,12.623,8.629,8.629,0,0,1-5.768.637c4.4-2.4,9.227-.9,11.966,4.122M-8.6-5.263-3.633-7.97-5.211-1.6-8.452.172ZM-6.187,8.924l7.165-3.9A3.6,3.6,0,0,0-4.031,3.893C-5.9,4.914-7,6.787-6.187,8.924" transform="translate(10.379 7.97)" fill="#ddde41"/>
      </g>
      <g id="Gruppe_55" data-name="Gruppe 55" transform="translate(493.034 559.838)">
        <path id="Pfad_54" data-name="Pfad 54" d="M.5.636l3.121-1.7,6.206,2.4L6.174,3.329,3.406,2.214,2.814,5.161-.842,7.154ZM15.631,18.343a6.428,6.428,0,0,1-3.45,4C9.148,24,5.6,23.578,3.967,20.574,2.346,17.6,3.86,15.427,7.354,12.712l.973-.762a28.541,28.541,0,0,0,2.282-1.9l-.177-.327c-.875-1.605-2.065-1.8-3.878-.816-1.725.941-2.266,2.353-1.469,3.886L1.4,14.8C-.428,11.594,1.3,7.836,5.109,5.761c3.924-2.139,7.1-1.9,9.209,2.038l3.146,5.842c.73,1.338,1.081,1.417,2.18.816l1.428,2.618a5.255,5.255,0,0,1-1.463,1.067c-1.4.762-2.643,1.094-3.978.2m-4.213.407c1.607-.875,2.6-2.455,1.575-4.33l-.81-1.485c-.634.538-1.473,1.265-2.769,2.279-1.621,1.27-1.921,2.2-1.42,3.127.6,1.1,1.878,1.252,3.424.409" transform="translate(0.842 1.065)" fill="#ddde41"/>
      </g>
      <g id="Gruppe_56" data-name="Gruppe 56" transform="translate(508.382 554.863)">
        <path id="Pfad_55" data-name="Pfad 55" d="M6.566,6.4,3.593,8.021C.651,9.627-1.323,9.12-3.446,5.227l-3.646-6.69L-9.173-.33l-1.75-3.212,2.081-1.134L-11-8.628l3.835-2.091,2.156,3.953,3.387-1.848L.133-5.4-3.257-3.556.552,3.431c.567,1.041,1.054,1.509,2.3.829L4.816,3.19Z" transform="translate(10.997 10.719)" fill="#ddde41"/>
      </g>
      <g id="Gruppe_57" data-name="Gruppe 57" transform="translate(520.942 550.2)">
        <path id="Pfad_56" data-name="Pfad 56" d="M4.5,6.708.64,8.815-7.544-6.2l3.776-2.057L-2.462-6A6.05,6.05,0,0,1,.863-10.937a3.751,3.751,0,0,1,.687-.3L3.625-7.428l-1.011.551C.384-5.662-1.039-3.459.55-.546Z" transform="translate(7.544 11.234)" fill="#ddde41"/>
      </g>
      <g id="Gruppe_58" data-name="Gruppe 58" transform="translate(534.047 543.959)">
        <path id="Pfad_57" data-name="Pfad 57" d="M6.2,1.959l.422.771-11.3,6.158A4.314,4.314,0,0,0,1.246,10.21,5.444,5.444,0,0,0,3.953,5.765l3.894.423A8.88,8.88,0,0,1,2.923,13.5,8.6,8.6,0,0,1-9.223,9.824,8.628,8.628,0,0,1-5.768-2.163c4.4-2.4,9.227-.9,11.966,4.122M-6.187,6.125.978,2.22A3.6,3.6,0,0,0-4.031,1.094C-5.9,2.114-7,3.988-6.187,6.125" transform="translate(10.379 3.282)" fill="#ddde41"/>
      </g>
      <g id="Gruppe_59" data-name="Gruppe 59" transform="translate(554.292 526.847)">
        <path id="Pfad_58" data-name="Pfad 58" d="M.115,1.433A2.6,2.6,0,0,1,1.174-2.073a2.577,2.577,0,0,1,3.52,1.011A2.587,2.587,0,0,1,3.653,2.474,2.607,2.607,0,0,1,.115,1.433M9.952,24.572a7.04,7.04,0,0,0,1.03-.446,1.57,1.57,0,0,0,.624-2.463L3.082,6.026,6.946,3.918l8.671,15.907c1.8,3.3,1.287,5.545-2.043,7.361a16.11,16.11,0,0,1-1.742.835Z" transform="translate(0.193 2.399)" fill="#ddde41"/>
      </g>
      <g id="Gruppe_60" data-name="Gruppe 60" transform="translate(567.55 525.696)">
        <path id="Pfad_59" data-name="Pfad 59" d="M6.2,1.959l.422.771-11.3,6.16a4.316,4.316,0,0,0,5.925,1.321A5.449,5.449,0,0,0,3.953,5.765l3.894.423A8.88,8.88,0,0,1,2.923,13.5,8.6,8.6,0,0,1-9.223,9.824,8.629,8.629,0,0,1-5.768-2.163c4.4-2.4,9.227-.9,11.966,4.122M-6.187,6.125.978,2.218A3.6,3.6,0,0,0-4.031,1.094C-5.9,2.114-7,3.988-6.187,6.125" transform="translate(10.379 3.282)" fill="#ddde41"/>
      </g>
      <g id="Gruppe_61" data-name="Gruppe 61" transform="translate(582.805 514.172)">
        <path id="Pfad_60" data-name="Pfad 60" d="M6.291,5.689a5.959,5.959,0,0,1-3.213,4.646c-3.033,1.651-6.352.8-8.263-2.709l-5.349-9.811,3.9-2.123,4.83,8.859C-.757,6.484.811,7.1,2.595,6.123,4.259,5.216,4.919,3.314,3.7,1.084L-.932-7.42,2.933-9.527,11.117,5.489,7.372,7.53Z" transform="translate(10.535 9.527)" fill="#ddde41"/>
      </g>
      <g id="Gruppe_62" data-name="Gruppe 62" transform="translate(600.554 506.077)">
        <path id="Pfad_61" data-name="Pfad 61" d="M4.5,6.98.64,9.087-7.544-5.928l3.776-2.057,1.145,1.96A5.913,5.913,0,0,1,.616-10.837c3.122-1.7,6.181-.9,8.206,2.814L14.137,1.73,10.272,3.837,5.508-4.9C4.342-7.044,2.852-7.582,1.1-6.626-.6-5.7-1.314-3.693-.05-1.374Z" transform="translate(7.544 11.69)" fill="#ddde41"/>
      </g>
      <g id="Gruppe_63" data-name="Gruppe 63" transform="translate(619.931 497.144)">
        <path id="Pfad_62" data-name="Pfad 62" d="M6.2,1.959l.422.773-11.3,6.158A4.315,4.315,0,0,0,1.246,10.21,5.44,5.44,0,0,0,3.953,5.765l3.894.423A8.878,8.878,0,0,1,2.925,13.5,8.6,8.6,0,0,1-9.223,9.824,8.629,8.629,0,0,1-5.768-2.163c4.4-2.4,9.227-.9,11.966,4.122M-6.185,6.125.978,2.22A3.6,3.6,0,0,0-4.031,1.094C-5.9,2.114-7,3.988-6.185,6.125" transform="translate(10.379 3.282)" fill="#ddde41"/>
      </g>
      <g id="Gruppe_64" data-name="Gruppe 64" transform="translate(643.452 482.572)">
        <path id="Pfad_63" data-name="Pfad 63" d="M4.177,6.426,8.132,13.68,4.267,15.786-7-4.877l3.865-2.107L-2-4.9A5.908,5.908,0,0,1,1.418-9.885c3.3-1.8,8.4-.995,11.127,4,2.674,4.9.7,9.84-2.693,11.688a6.873,6.873,0,0,1-5.675.624M7.092,2.717C9.084,1.631,10.131-.907,8.606-3.7,7.245-6.2,4.658-6.985,2.457-5.786.494-4.717-.662-2.312.876.512L.86.481.91.571.876.512C2.4,3.307,5.129,3.786,7.092,2.717" transform="translate(6.996 10.762)" fill="#ddde41"/>
      </g>
      <g id="Gruppe_65" data-name="Gruppe 65" transform="translate(661.971 471.021)">
        <path id="Pfad_64" data-name="Pfad 64" d="M6.291,5.689a5.958,5.958,0,0,1-3.215,4.644c-3.033,1.653-6.35.8-8.262-2.707l-5.349-9.811,3.9-2.124,4.828,8.861C-.757,6.484.811,7.1,2.593,6.123,4.259,5.216,4.919,3.314,3.7,1.084L-.932-7.42,2.933-9.527,11.117,5.487,7.37,7.53Z" transform="translate(10.535 9.527)" fill="#ddde41"/>
      </g>
      <g id="Gruppe_66" data-name="Gruppe 66" transform="translate(676.072 459.891)">
        <path id="Pfad_65" data-name="Pfad 65" d="M7.663,7.281a6.332,6.332,0,0,1-5.85.374L2.774,9.56-1,11.618l-11.831-21.7,3.865-2.107,4.505,8.267A7.093,7.093,0,0,1-.788-8.435c3.3-1.8,8.434-1.013,11.156,3.983,2.691,4.935.684,9.885-2.706,11.732M4.869,4.137C6.861,3.051,7.925.544,6.4-2.251A4.451,4.451,0,0,0,.251-4.337c-1.961,1.07-3.119,3.475-1.58,6.3,1.524,2.795,4.237,3.244,6.2,2.175" transform="translate(12.833 12.193)" fill="#ddde41"/>
      </g>
    </g>
    <g id="Gruppe_68" data-name="Gruppe 68" transform="translate(767.76 459.061)">
      <path id="Pfad_67" data-name="Pfad 67" d="M0-.468l1.562-.851L6.341,7.45,4.78,8.3Z" transform="translate(0 1.319)" fill="#ddde41"/>
    </g>
    <g id="Gruppe_74" data-name="Gruppe 74" clip-path="url(#clip-path)">
      <g id="Gruppe_69" data-name="Gruppe 69" transform="translate(703.349 445.599)">
        <path id="Pfad_68" data-name="Pfad 68" d="M.115,1.433A2.6,2.6,0,0,1,1.174-2.073a2.577,2.577,0,0,1,3.52,1.011A2.587,2.587,0,0,1,3.653,2.474,2.608,2.608,0,0,1,.115,1.433M3.081,6.024,6.946,3.918,15.13,18.932,11.266,21.04Z" transform="translate(0.193 2.399)" fill="#ddde41"/>
      </g>
      <g id="Gruppe_70" data-name="Gruppe 70" transform="translate(716.66 444.19)">
        <path id="Pfad_69" data-name="Pfad 69" d="M.43,5.03A8.839,8.839,0,0,1,4.163-7.223a9.118,9.118,0,0,1,8.584-.244L11.118-3.379A5.066,5.066,0,0,0,6.127-3.55,4.5,4.5,0,0,0,4.4,2.829,4.562,4.562,0,0,0,10.73,4.892,4.951,4.951,0,0,0,13.257.545l4.253.728a8.776,8.776,0,0,1-4.817,7.292A8.744,8.744,0,0,1,.43,5.03" transform="translate(0.721 8.423)" fill="#ddde41"/>
      </g>
      <g id="Gruppe_71" data-name="Gruppe 71" transform="translate(358.787 675.854)">
        <path id="Pfad_70" data-name="Pfad 70" d="M0,2.294,8.918-2.567c4.37-2.383,8.155-1.244,9.872,1.909a5.332,5.332,0,0,1-.283,5.706A6.036,6.036,0,0,1,24.383,8.4c2.108,3.867.62,7.645-3.988,10.158L11.506,23.4Zm5.957,1.38L8.6,8.52l4.7-2.56c1.933-1.054,2.317-2.613,1.54-4.039C14.09.553,12.587.06,10.626,1.13Zm4.587,8.414,3.031,5.56L18.063,15.2c2.081-1.134,3.023-2.8,2-4.676-1-1.845-2.95-2.017-5.031-.883Z" transform="translate(0 3.842)" fill="#ddde41"/>
      </g>
      <g id="Gruppe_72" data-name="Gruppe 72" transform="translate(378.753 668.804)">
        <path id="Pfad_71" data-name="Pfad 71" d="M.115,1.433A2.6,2.6,0,0,1,1.172-2.074,2.581,2.581,0,0,1,4.694-1.062,2.587,2.587,0,0,1,3.653,2.474,2.61,2.61,0,0,1,.115,1.433M3.079,6.025,6.946,3.918,15.13,18.932l-3.865,2.107Z" transform="translate(0.193 2.4)" fill="#ddde41"/>
      </g>
      <g id="Gruppe_73" data-name="Gruppe 73" transform="translate(392.009 667.653)">
        <path id="Pfad_72" data-name="Pfad 72" d="M6.2,1.959l.422.773L-4.68,8.889a4.317,4.317,0,0,0,5.927,1.322A5.446,5.446,0,0,0,3.954,5.765l3.894.423A8.879,8.879,0,0,1,2.925,13.5,8.6,8.6,0,0,1-9.223,9.824,8.628,8.628,0,0,1-5.768-2.163c4.4-2.4,9.227-.9,11.966,4.122M-6.187,6.125.978,2.22A3.6,3.6,0,0,0-4.03,1.1C-5.9,2.116-7,3.988-6.187,6.125" transform="translate(10.379 3.282)" fill="#ddde41"/>
      </g>
    </g>
    <g id="Gruppe_75" data-name="Gruppe 75" transform="translate(408.57 683.483)">
      <path id="Pfad_74" data-name="Pfad 74" d="M0-.468l1.562-.851L6.341,7.45,4.78,8.3Z" transform="translate(0 1.319)" fill="#ddde41"/>
    </g>
    <g id="Gruppe_76" data-name="Gruppe 76" transform="translate(421.534 679.459)">
      <path id="Pfad_75" data-name="Pfad 75" d="M0-.525l1.754-.956L2.9,10.091l-1.753.956Z" transform="translate(0 1.481)" fill="#ddde41"/>
    </g>
    <g id="Gruppe_83" data-name="Gruppe 83" clip-path="url(#clip-path)">
      <g id="Gruppe_77" data-name="Gruppe 77" transform="translate(426.596 638.892)">
        <path id="Pfad_76" data-name="Pfad 76" d="M0,2.294,8.92-2.568c4.37-2.381,8.153-1.244,9.87,1.909a5.332,5.332,0,0,1-.283,5.706A6.039,6.039,0,0,1,24.385,8.4c2.107,3.865.618,7.645-3.99,10.156L11.506,23.4ZM5.957,3.676,8.6,8.521l4.7-2.56c1.933-1.054,2.316-2.613,1.538-4.041C14.09.553,12.587.06,10.626,1.13Zm4.587,8.414,3.031,5.558L18.063,15.2c2.081-1.136,3.023-2.8,2-4.678-1-1.843-2.95-2.017-5.031-.883Z" transform="translate(0 3.842)" fill="#ddde41"/>
      </g>
      <g id="Gruppe_78" data-name="Gruppe 78" transform="translate(446.562 631.842)">
        <path id="Pfad_77" data-name="Pfad 77" d="M.115,1.433A2.6,2.6,0,0,1,1.172-2.074,2.582,2.582,0,0,1,4.694-1.063,2.587,2.587,0,0,1,3.653,2.474,2.61,2.61,0,0,1,.115,1.433M3.081,6.025,6.946,3.918l8.184,15.014-3.865,2.107Z" transform="translate(0.193 2.4)" fill="#ddde41"/>
      </g>
      <g id="Gruppe_79" data-name="Gruppe 79" transform="translate(459.82 630.692)">
        <path id="Pfad_78" data-name="Pfad 78" d="M6.2,1.959l.42.771-11.3,6.16a4.317,4.317,0,0,0,5.925,1.321A5.449,5.449,0,0,0,3.953,5.765l3.894.423A8.874,8.874,0,0,1,2.925,13.5,8.6,8.6,0,0,1-9.223,9.824,8.628,8.628,0,0,1-5.768-2.163c4.4-2.4,9.227-.9,11.966,4.122M-6.187,6.125.978,2.22A3.6,3.6,0,0,0-4.031,1.094C-5.9,2.114-7,3.988-6.187,6.125" transform="translate(10.379 3.282)" fill="#ddde41"/>
      </g>
      <g id="Gruppe_80" data-name="Gruppe 80" transform="translate(475.313 620.618)">
        <path id="Pfad_79" data-name="Pfad 79" d="M4.5,6.98.64,9.087-7.544-5.928l3.776-2.059,1.145,1.96a5.914,5.914,0,0,1,3.239-4.81c3.122-1.7,6.181-.9,8.206,2.814l5.317,9.752L10.272,3.835,5.509-4.906C4.342-7.046,2.853-7.584,1.1-6.627-.6-5.7-1.312-3.693-.049-1.374Z" transform="translate(7.544 11.69)" fill="#ddde41"/>
      </g>
      <g id="Gruppe_81" data-name="Gruppe 81" transform="translate(492.852 611.058)">
        <path id="Pfad_80" data-name="Pfad 80" d="M4.5,6.98.64,9.086-7.544-5.928l3.776-2.059,1.145,1.96a5.912,5.912,0,0,1,3.241-4.81c3.121-1.7,6.179-.9,8.206,2.814l5.315,9.752L10.273,3.835,5.509-4.906C4.342-7.046,2.853-7.584,1.1-6.628-.6-5.7-1.312-3.694-.049-1.375Z" transform="translate(7.544 11.689)" fill="#ddde41"/>
      </g>
      <g id="Gruppe_82" data-name="Gruppe 82" transform="translate(512.23 602.124)">
        <path id="Pfad_81" data-name="Pfad 81" d="M6.2,1.959l.42.771-11.3,6.16a4.319,4.319,0,0,0,5.927,1.321A5.445,5.445,0,0,0,3.953,5.765l3.894.423A8.875,8.875,0,0,1,2.925,13.5,8.6,8.6,0,0,1-9.222,9.824,8.626,8.626,0,0,1-5.767-2.163c4.4-2.4,9.225-.9,11.964,4.122M-6.187,6.125.979,2.218a3.608,3.608,0,0,0-5.01-1.124C-5.9,2.114-7,3.988-6.187,6.125" transform="translate(10.378 3.282)" fill="#ddde41"/>
      </g>
    </g>
  </g>
</svg>
