<svg xmlns="http://www.w3.org/2000/svg" width="49.3" height="88.504" viewBox="0 0 49.3 88.504">
  <g id="Group_121" data-name="Group 121" transform="translate(-1051.602 -814.453)">
    <g id="Group_117" data-name="Group 117" transform="translate(1054.104 816.953)">
      <path id="Path_96" data-name="Path 96" d="M35.868,0H-8.43s.016,33.935,17.462,39.132A21.529,21.529,0,0,1,8.7,44.471C-8.414,50-8.43,83.5-8.43,83.5h44.3s-.016-35.759-18.88-39.485a20.229,20.229,0,0,1,.594-4.64C35.868,35.044,35.868,0,35.868,0Z" transform="translate(8.43)" fill="none" stroke="#f64856" stroke-width="5"/>
    </g>
    <g id="Group_118" data-name="Group 118" transform="translate(1055.531 831.722)">
      <path id="Path_97" data-name="Path 97" d="M5.9,55.419c3.931-3.726,10.4-13.694,9.837-38.78a5.3,5.3,0,0,0-2.785-6.569C8.567,7.879,1-.681-1.386-13.025l41.213.793s-2.591,21.308-17.519,22.9l.2,5.57S21.11,43.916,32.86,56.26Z" transform="translate(1.386 13.025)" fill="#f64856"/>
    </g>
  </g>
</svg>
