<svg id="OPEN_HOUSE_BUTTON" data-name="OPEN HOUSE BUTTON" xmlns="http://www.w3.org/2000/svg" width="470.423" height="333.56" viewBox="0 0 470.423 333.56">
  <path id="Pfad_83" data-name="Pfad 83" d="M274.756,193.444c-30.076-13.6-37.6-33.232-106.329-9.065s-88.062,47.577-89.136,95.907,60.143,54.371,34.367,107.231,18.266,57.391,65.517,104.21,158.962-29.451,191.173-63.432S549.7,312,549.7,312L467,299.164s37.585-27.185,46.177-52.86-49.412-20.395-78.4-22.657S334.9,184.379,334.9,184.379Z" transform="translate(-79.277 -172.96)" fill="#ddde41"/>
  <text id="OPEN_HOUSE_" data-name="OPEN
HOUSE!" transform="translate(23.917 84.421) rotate(-9)" fill="#fff" font-size="80" font-family="SegoeUI-Bold, Segoe UI" font-weight="700"><tspan x="67.707" y="86">OPEN</tspan><tspan x="28.801" y="161">HOUSE!</tspan></text>
  <text id="Weitere_Infos" data-name="Weitere Infos" transform="matrix(0.985, -0.174, 0.174, 0.985, 101.193, 247.461)" fill="#4f3244" font-size="20" font-family="SegoeUI, Segoe UI"><tspan x="18.282" y="22">Weitere Infos</tspan></text>
</svg>
