<svg xmlns="http://www.w3.org/2000/svg" viewBox="0 0 59.86 42.8"><defs><style>.cls-1{fill:none;stroke:#e2e738;stroke-width:1.8px;}.cls-2{fill:#e2e738;}</style></defs><title>DE_Vektor</title><g id="Layer_2" data-name="Layer 2"><g id="Layer_1-2" data-name="Layer 1"><path class="cls-1" d="M2.15,40.56,7.83,29.39v-19S6.7.9,18.06.9H52.71S59,1.46,59,9.28V26s0,7.82-9.09,7.82H14.08Z"/><path class="cls-2" d="M19.57,8.91h5.65c4.83,0,8,2.47,8,7.5,0,4.82-3.18,7.66-8,7.66H19.57Zm5.28,12.26c3.12,0,4.75-1.78,4.75-4.74S28,11.82,24.85,11.82H23.1v9.35Z"/><path class="cls-2" d="M46.62,24.07H35.42V8.91H46.49v2.82H38.87v3.18h7v2.75h-7v3.6h7.75Z"/></g></g></svg>