<svg xmlns="http://www.w3.org/2000/svg" viewBox="0 0 31.02 42.26"><defs><style>.cls-1{font-size:22px;fill:#fff;font-family:BeausiteClassic-Medium, Beausite Classic;font-weight:500;}.cls-2{fill:#e2e738;}</style></defs><title>Icon_Zeit</title><g id="Layer_2" data-name="Layer 2"><g id="Layer_1-2" data-name="Layer 1"><text class="cls-1" transform="translate(20.02 36.85)"><tspan xml:space="preserve">  </tspan></text><path class="cls-2" d="M8.37,20.45l.33-.1C8.78,29,6.83,33.2,5.25,35.16H1.8c.15-3,1.05-12.92,6.57-14.71M18.63,1.77a37.57,37.57,0,0,1-.71,5.65L2.46,7.12A36,36,0,0,1,1.8,1.77Zm0,33.39H15c-3.26-4.59-3.49-12.26-3.47-14.84,6,1.32,6.94,11.71,7.1,14.84M0,36.05v.88H20.42v-.88c0-.63-.09-14.91-7.91-17.31,0-.19.05-.37.08-.57C20.33,15.7,20.42,1.5,20.42.88V0H0V.88C0,1.48.09,15.11,7.37,18a6.58,6.58,0,0,1-.07,1C.09,21.91,0,35.46,0,36.05"/></g></g></svg>