<svg xmlns="http://www.w3.org/2000/svg" viewBox="0 0 18.85 18.48"><defs><style>.cls-1{fill:#e2e738;}</style></defs><title>Schulprojekt</title><g id="Layer_2" data-name="Layer 2"><g id="Layer_1-2" data-name="Layer 1"><path class="cls-1" d="M9.5,14.52a7,7,0,0,1-4.66-1.65L6.41,11a4.41,4.41,0,0,0,3.13,1.32c1.06,0,1.91-.28,1.91-1s-.4-.81-1.77-1l-1-.16C6.6,9.81,5.36,8.93,5.36,7.21,5.36,5,7.59,3.8,9.66,3.8a6.55,6.55,0,0,1,4.13,1.32L12.34,7.05A4.07,4.07,0,0,0,9.62,6c-.95,0-1.78.3-1.78,1s.4.71,1.78.94l1,.16C12.77,8.39,14,9.42,14,11.13c0,2.33-2.19,3.39-4.51,3.39M9.43,0A9.34,9.34,0,0,0,0,9.24a9.34,9.34,0,0,0,9.43,9.24,9.33,9.33,0,0,0,9.42-9.24A9.33,9.33,0,0,0,9.43,0"/></g></g></svg>