<svg xmlns="http://www.w3.org/2000/svg" viewBox="0 0 130.13 38.27"><defs><style>.cls-1,.cls-2{fill:#ea5060;}.cls-2{font-size:18px;font-family:BeausiteClassic-Light, Beausite Classic;font-weight:300;}.cls-3{letter-spacing:0.01em;}.cls-4{letter-spacing:-0.09em;}.cls-5{letter-spacing:0em;}</style></defs><title>Theater_Text</title><g id="Layer_2" data-name="Layer 2"><g id="Layer_1-2" data-name="Layer 1"><path class="cls-1" d="M30.65,16a3.36,3.36,0,0,0-3.26,2.58H23.51A6.7,6.7,0,0,0,22.46,15l2.75-2.74a3.31,3.31,0,0,0,2.12.78A3.37,3.37,0,1,0,24,9.67a3.33,3.33,0,0,0,.41,1.57L21.66,14a6.7,6.7,0,0,0-3.31-1.91V8.68a3.35,3.35,0,1,0-1.3,0v3.22l-.27,0a6.73,6.73,0,0,0-3.57,1.05L11,10.72A3.27,3.27,0,0,0,11.52,9a3.39,3.39,0,1,0-1.34,2.68l2,2a6.7,6.7,0,0,0-2,3.58H6.56a3.36,3.36,0,1,0,.13,1.3h3.36a6.65,6.65,0,0,0,1.27,3.89L8.77,25a3.36,3.36,0,1,0,1.56,2.83,3.26,3.26,0,0,0-.62-1.92l2.46-2.46a6.72,6.72,0,0,0,3.58,1.74V29a3.37,3.37,0,1,0,1.3-.09V25.27A6.71,6.71,0,0,0,20.68,24l2.72,2.73a3.36,3.36,0,1,0,2.83-1.55,3.31,3.31,0,0,0-1.93.61l-2.64-2.65a6.7,6.7,0,0,0,1.72-3.3h4A3.36,3.36,0,1,0,30.65,16"/><text class="cls-2" transform="translate(45.75 16.15)">TH<tspan class="cls-3" x="24.32" y="0">É</tspan><tspan class="cls-4" x="35.39" y="0">Â</tspan><tspan class="cls-5" x="45.79" y="0">TRE </tspan></text><text class="cls-2" transform="translate(45.75 34.15)">TH<tspan class="cls-3" x="24.32" y="0">E</tspan><tspan class="cls-4" x="35.39" y="0">A</tspan><tspan class="cls-5" x="45.79" y="0">TER</tspan></text></g></g></svg>