<svg xmlns="http://www.w3.org/2000/svg" viewBox="0 0 124.7 35.62"><defs><style>.cls-1{fill:#ea5060;}</style></defs><title>Theater_Vektor</title><g id="Layer_2" data-name="Layer 2"><g id="Layer_1-2" data-name="Layer 1"><path class="cls-1" d="M30.65,16a3.36,3.36,0,0,0-3.26,2.58H23.51A6.73,6.73,0,0,0,22.46,15l2.75-2.74a3.31,3.31,0,0,0,2.12.78A3.37,3.37,0,1,0,24,9.68a3.33,3.33,0,0,0,.41,1.57L21.66,14a6.7,6.7,0,0,0-3.31-1.91V8.69a3.35,3.35,0,1,0-1.3,0v3.21l-.27,0a6.72,6.72,0,0,0-3.57,1L11,10.72A3.26,3.26,0,0,0,11.52,9a3.37,3.37,0,1,0-3.36,3.36,3.33,3.33,0,0,0,2-.69l2,2a6.74,6.74,0,0,0-2,3.58H6.56a3.36,3.36,0,1,0,.13,1.3h3.36a6.66,6.66,0,0,0,1.27,3.9L8.77,25A3.29,3.29,0,0,0,7,24.47a3.37,3.37,0,1,0,3.37,3.37,3.31,3.31,0,0,0-.62-1.93l2.46-2.46a6.72,6.72,0,0,0,3.58,1.74V29a3.37,3.37,0,1,0,1.3-.09V25.27A6.7,6.7,0,0,0,20.68,24l2.72,2.72a3.42,3.42,0,0,0-.53,1.81,3.36,3.36,0,1,0,1.43-2.75l-2.64-2.64a6.77,6.77,0,0,0,1.72-3.31h4A3.36,3.36,0,1,0,30.65,16"/><path class="cls-1" d="M50.74,4.64H46.15V3.55H56.57V4.64H52V16.15H50.74Z"/><path class="cls-1" d="M58.49,3.55h1.27V9.09h7.52V3.55h1.28v12.6H67.28v-6H59.76v6H58.49Z"/><path class="cls-1" d="M80.19,16.15H71.6V3.55h8.46V4.64H72.84V9.09h6.75v1.1H72.84v4.86h7.35ZM76.28,0h1.3l-1.3,2.25H75.15Z"/><path class="cls-1" d="M90.27,12.55H84.05l-1.45,3.6H81.32L86.5,3.55h1.39l5.19,12.6H91.72Zm-.44-1.1L87.17,4.84l-2.68,6.61ZM87.19.68l-1.5,1.57H84.54L86.63,0h1.15l2.07,2.25H88.7Z"/><path class="cls-1" d="M96.53,4.64H91.94V3.55h10.42V4.64H97.79V16.15H96.53Z"/><path class="cls-1" d="M105.53,10.77v5.38h-1.24V3.55h5.13c2.72,0,4,1.53,4,3.58a3.34,3.34,0,0,1-3,3.49v0l.43.76,2.81,4.75h-1.46l-3-5.13c-.12-.22-.16-.25-.45-.25Zm0-1.08h3.8c1.92,0,2.88-1,2.88-2.52s-1-2.53-2.9-2.53h-3.78Z"/><path class="cls-1" d="M124.54,16.15H116V3.55h8.46V4.64h-7.22V9.09h6.75v1.1h-6.75v4.86h7.35Z"/><path class="cls-1" d="M50.74,22.64H46.15V21.55H56.57v1.09H52V34.15H50.74Z"/><path class="cls-1" d="M58.49,21.55h1.27v5.54h7.52V21.55h1.28v12.6H67.28v-6H59.76v6H58.49Z"/><path class="cls-1" d="M80.19,34.15H71.6V21.55h8.46v1.09H72.84v4.45h6.75v1.1H72.84v4.86h7.35Z"/><path class="cls-1" d="M90.27,30.55H84.05l-1.45,3.6H81.32l5.18-12.6h1.39l5.19,12.6H91.72Zm-.44-1.1-2.66-6.61-2.68,6.61Z"/><path class="cls-1" d="M96.53,22.64H91.94V21.55h10.42v1.09H97.79V34.15H96.53Z"/><path class="cls-1" d="M112.87,34.15h-8.58V21.55h8.46v1.09h-7.22v4.45h6.75v1.1h-6.75v4.86h7.34Z"/><path class="cls-1" d="M116.49,28.77v5.38h-1.24V21.55h5.13c2.72,0,4.05,1.53,4.05,3.58a3.34,3.34,0,0,1-3,3.49v0l.43.76,2.81,4.75h-1.46l-3-5.13c-.12-.22-.16-.25-.45-.25Zm0-1.08h3.8c1.93,0,2.88-1.05,2.88-2.52s-1-2.53-2.9-2.53h-3.78Z"/></g></g></svg>